<svg width="119" height="124" viewBox="0 0 119 124" fill="none" xmlns="http://www.w3.org/2000/svg">
<path d="M11.7295 56.6483C11.582 57.5312 12.0406 58.113 12.6411 58.2174C13.3276 58.3367 13.6387 57.8553 13.8809 57.3739C14.1126 56.9141 14.2813 56.4544 14.6549 56.5195C14.9662 56.5737 15.0754 56.826 15.0133 57.1298C14.9524 57.462 14.7215 57.6343 14.4675 57.6071L14.3246 58.4629C15.0208 58.532 15.5101 58.056 15.6431 57.2613C15.7768 56.4612 15.4566 55.8238 14.7688 55.7045C14.063 55.5797 13.7607 56.0638 13.5235 56.548C13.2966 57.0104 13.1294 57.4729 12.7267 57.4037C12.4536 57.3562 12.2988 57.1067 12.3604 56.7392C12.4202 56.3785 12.6566 56.2076 12.9662 56.2388L13.1056 55.4048C13.042 55.3953 12.9802 55.3898 12.9199 55.3898C12.2948 55.3898 11.8522 55.9133 11.7295 56.6483Z" fill="url(#paint0_linear_864_3657)"/>
<path d="M11.0423 64.6062C11.0243 65.7223 11.8297 66.6323 12.9934 66.6513C14.1509 66.6702 14.9848 65.7928 15.0028 64.6713C15.021 63.5606 14.2155 62.6398 13.0579 62.6208C13.0454 62.6208 13.0331 62.6208 13.0208 62.6208C11.8768 62.6208 11.0597 63.5077 11.0423 64.6062ZM13.006 65.8403C12.2197 65.8267 11.7234 65.3277 11.7346 64.617C11.7462 63.901 12.2582 63.4196 13.0446 63.4318C13.8315 63.4453 14.3165 63.9444 14.3049 64.6604C14.294 65.3616 13.806 65.8403 13.037 65.8403C13.0267 65.8403 13.0164 65.8403 13.006 65.8403Z" fill="url(#paint1_linear_864_3657)"/>
<path d="M11.4585 71.2879L11.7519 73.3533L12.3606 73.2625L12.1784 71.9795L15.398 71.5063L15.2867 70.7238L11.4585 71.2879Z" fill="url(#paint2_linear_864_3657)"/>
<path d="M13.0186 78.9108L13.2904 79.8289L17.4023 80.0744L17.1637 79.2702L13.9145 79.1427L16.5507 77.2021L16.3108 76.3925L13.0186 78.9108Z" fill="url(#paint3_linear_864_3657)"/>
<path d="M15.377 85.4027L15.7014 86.1188L19.211 84.4724L18.8861 83.7563L15.377 85.4027Z" fill="url(#paint4_linear_864_3657)"/>
<path d="M17.9043 90.3893L18.3239 91.0524L20.5542 89.5918L19.2733 92.5537L19.6927 93.2182L22.9476 91.0863L22.5282 90.4232L20.293 91.8864L21.5785 88.9206L21.1591 88.2574L17.9043 90.3893Z" fill="url(#paint5_linear_864_3657)"/>
<path d="M23.9285 95.6362C23.0729 96.4309 23.046 97.6311 23.8035 98.4773C24.498 99.2517 25.5046 99.2869 26.1905 98.8638L26.6897 98.4014L25.2787 96.8255L24.8407 97.2324L25.7364 98.2318C25.2526 98.5207 24.7414 98.4692 24.3381 98.0189C23.8529 97.4778 23.8845 96.7767 24.4658 96.2369C25.0354 95.7094 25.7243 95.7338 26.1909 96.2546C26.4673 96.5624 26.5568 96.9218 26.4346 97.2798L27.0359 97.9498C27.4407 97.231 27.3016 96.4132 26.7193 95.7636C26.3183 95.3161 25.7971 95.0842 25.2679 95.0842C24.8016 95.0842 24.3292 95.2646 23.9285 95.6362Z" fill="url(#paint6_linear_864_3657)"/>
<path d="M32.48 106.118L33.1716 106.557L33.778 106.06L35.0826 106.889L34.9093 107.662L35.6036 108.105L36.4765 104.014L35.7116 103.528L32.48 106.118ZM34.2843 105.638L35.6156 104.543L35.2332 106.241L34.2843 105.638Z" fill="url(#paint7_linear_864_3657)"/>
<path d="M40.2386 108.324C39.7975 109.413 40.2719 110.509 41.3007 110.939C42.0949 111.271 42.9131 111.115 43.4582 110.464L42.6333 110.12C42.3201 110.403 41.9443 110.447 41.5592 110.285C40.9342 110.023 40.6783 109.368 40.9755 108.633C41.2754 107.893 41.9083 107.615 42.5333 107.877C42.9171 108.038 43.1557 108.338 43.1837 108.758L44.0085 109.104C44.0685 108.258 43.5981 107.554 42.8039 107.222C42.5413 107.112 42.2748 107.059 42.0163 107.059C41.258 107.059 40.5664 107.512 40.2386 108.324Z" fill="url(#paint8_linear_864_3657)"/>
<path d="M47.7372 111.076C47.4866 112.226 48.137 113.223 49.2244 113.468C50.0626 113.657 50.8435 113.36 51.2699 112.623L50.3997 112.428C50.1386 112.762 49.7747 112.87 49.3696 112.778C48.71 112.63 48.3475 112.028 48.5154 111.252C48.686 110.47 49.263 110.086 49.924 110.235C50.3291 110.327 50.6143 110.581 50.7116 110.99L51.5831 111.187C51.5005 110.342 50.9181 109.732 50.0799 109.543C49.9227 109.507 49.7667 109.491 49.6148 109.491C48.718 109.491 47.9517 110.091 47.7372 111.076Z" fill="url(#paint9_linear_864_3657)"/>
<path d="M55.6543 114.443L57.8944 114.587L57.9331 113.945L56.4685 113.852L56.5325 112.81L57.8318 112.893L57.8704 112.269L56.5711 112.187L56.6311 111.202L58.0957 111.294L58.1356 110.653L55.8968 110.51L55.6543 114.443Z" fill="url(#paint10_linear_864_3657)"/>
<path d="M63.5246 110.468C62.7304 110.535 62.2013 111.008 62.2586 111.716C62.3679 113.137 64.3135 112.461 64.3815 113.309C64.4042 113.59 64.2043 113.804 63.8405 113.834C63.482 113.864 63.2608 113.673 63.2128 113.361L62.3852 113.43C62.4559 114.171 63.1089 114.546 63.9084 114.478C64.7866 114.407 65.2277 113.81 65.1771 113.191C65.0665 111.81 63.1262 112.413 63.0622 111.626C63.0369 111.306 63.2514 111.136 63.5553 111.121C63.8871 111.099 64.107 111.285 64.1443 111.541L64.9945 111.471C64.8959 110.821 64.4002 110.46 63.7032 110.46C63.6459 110.46 63.5859 110.463 63.5246 110.468Z" fill="url(#paint11_linear_864_3657)"/>
<path d="M70.2172 109.387C69.4416 109.576 68.9885 110.125 69.1511 110.817C69.4709 112.206 71.2939 111.236 71.4872 112.063C71.5525 112.338 71.3872 112.581 71.0314 112.667C70.6809 112.752 70.4344 112.597 70.3398 112.295L69.5322 112.492C69.7121 113.213 70.4131 113.483 71.1953 113.293C72.0522 113.086 72.3987 112.428 72.2574 111.824C71.9416 110.475 70.1119 111.372 69.932 110.604C69.86 110.291 70.0466 110.09 70.3451 110.029C70.6689 109.956 70.9155 110.105 70.9901 110.353L71.8203 110.151C71.6537 109.613 71.2273 109.329 70.6716 109.329C70.529 109.329 70.3758 109.348 70.2172 109.387Z" fill="url(#paint12_linear_864_3657)"/>
<path d="M79.7456 105.967L80.0414 106.529L80.9503 106.032L82.4815 108.94L83.1651 108.567L81.6326 105.659L82.5415 105.164L82.2456 104.603L79.7456 105.967Z" fill="url(#paint13_linear_864_3657)"/>
<path d="M86.9991 101.285C86.1315 101.959 85.921 103.172 86.6233 104.108C87.3295 105.049 88.5356 105.16 89.4031 104.486C90.2733 103.81 90.4759 102.603 89.7696 101.663C89.3645 101.122 88.7954 100.853 88.2184 100.853C87.796 100.853 87.3695 100.997 86.9991 101.285ZM87.2576 103.616C86.7805 102.98 86.8631 102.284 87.4228 101.849C87.9772 101.419 88.6595 101.519 89.1366 102.155C89.6137 102.791 89.5364 103.496 88.982 103.928C88.7581 104.101 88.5129 104.188 88.2677 104.188C87.9039 104.188 87.5428 103.997 87.2576 103.616Z" fill="url(#paint14_linear_864_3657)"/>
<path d="M95.6504 92.5224L97.8039 94.2014C98.0464 94.3899 98.1117 94.6258 97.9372 94.8591C97.7586 95.0964 97.5094 95.0937 97.2469 94.8957L96.7751 95.5223C97.3948 96.005 98.0518 95.864 98.4929 95.2781C98.9273 94.7018 98.8847 94.044 98.2797 93.5707L96.1248 91.8918L95.6504 92.5224Z" fill="url(#paint15_linear_864_3657)"/>
<path d="M99.6308 86.1377L101.731 87.3054C102.197 87.5644 102.303 87.9563 102.064 88.4025C101.828 88.8419 101.447 88.9639 100.981 88.7049L98.8793 87.5386L98.5088 88.2316L100.604 89.3952C101.498 89.8929 102.271 89.5118 102.677 88.7551C103.082 87.9984 102.996 87.102 102.1 86.6042L100.005 85.4407L99.6308 86.1377Z" fill="url(#paint16_linear_864_3657)"/>
<path d="M102.06 80.3239C101.794 81.0887 102 81.7736 102.659 82.0123C103.344 82.2632 103.725 81.8197 104.045 81.3776C104.339 80.968 104.58 80.5598 104.959 80.6968C105.219 80.7917 105.329 81.0643 105.207 81.4142C105.085 81.76 104.824 81.8862 104.524 81.8021L104.246 82.5981C104.939 82.8382 105.544 82.3866 105.812 81.6163C106.108 80.7714 105.754 80.1177 105.18 79.9102C104.511 79.6675 104.122 80.1069 103.798 80.5463C103.5 80.9518 103.258 81.3559 102.908 81.2284C102.611 81.1213 102.547 80.8528 102.659 80.5639C102.776 80.2479 103.032 80.1191 103.277 80.1896L103.564 79.3719C103.448 79.3393 103.336 79.3244 103.228 79.3244C102.705 79.3244 102.28 79.6946 102.06 80.3239Z" fill="url(#paint17_linear_864_3657)"/>
<path d="M103.617 75.1516L104.231 75.2723L104.427 74.243L107.609 74.8709L107.757 74.0952L104.575 73.4673L104.771 72.438L104.156 72.3173L103.617 75.1516Z" fill="url(#paint18_linear_864_3657)"/>
<path d="M104.595 68.2529L108.454 68.4943L108.502 67.7064L104.641 67.465L104.595 68.2529Z" fill="url(#paint19_linear_864_3657)"/>
<path d="M107.136 60.2557C107.527 60.4116 107.733 60.7358 107.766 61.1562C107.818 61.8424 107.357 62.3713 106.579 62.4323C105.794 62.4933 105.265 62.0431 105.213 61.3569C105.181 60.9351 105.338 60.5839 105.694 60.3696L105.625 59.4637C104.856 59.7905 104.451 60.535 104.516 61.4057C104.603 62.5367 105.485 63.3328 106.64 63.2419C107.794 63.1511 108.542 62.2275 108.455 61.0965C108.39 60.2259 107.882 59.5532 107.067 59.3511L107.136 60.2557Z" fill="url(#paint20_linear_864_3657)"/>
<path d="M106.366 52.4809L106.706 53.9347L105.709 54.1761L105.406 52.8877L104.809 53.0328L105.111 54.3212L104.167 54.5504L103.827 53.0966L103.213 53.2458L103.734 55.4671L107.5 54.5531L106.98 52.3331L106.366 52.4809Z" fill="url(#paint21_linear_864_3657)"/>
<path d="M36.438 40.3231V81.4197L59.8255 97.9335L83.2116 81.4197V40.3231H36.438ZM38.373 80.3904V42.2515H81.278V80.3904L59.8255 95.5385L38.373 80.3904Z" fill="url(#paint22_linear_864_3657)"/>
<path d="M47.8132 51.4461C45.164 51.4461 43.0064 53.6417 43.0064 56.3377C43.0064 58.7964 44.7988 60.8306 47.1229 61.1737L41.1914 73.9812H53.4808L47.5707 61.2171C47.652 61.2212 47.7319 61.2293 47.8132 61.2293C50.4638 61.2293 52.62 59.0351 52.62 56.3377H50.6477C50.6477 57.9285 49.3764 59.2222 47.8132 59.2222C46.2514 59.2222 44.9801 57.9285 44.9801 56.3377C44.9801 54.7483 46.2514 53.4546 47.8132 53.4546H58.8393V88.3509H60.8116V53.4546H71.8364C73.3995 53.4546 74.6708 54.7483 74.6708 56.3377C74.6708 57.9285 73.3995 59.2222 71.8364 59.2222C70.2745 59.2222 69.0032 57.9285 69.0032 56.3377H67.0296C67.0296 59.0351 69.1858 61.2293 71.8364 61.2293C71.919 61.2293 71.9989 61.2212 72.0802 61.2171L66.1701 73.9812H78.4595L72.528 61.1737C74.8507 60.8306 76.6431 58.7964 76.6431 56.3377C76.6431 53.6417 74.4869 51.4461 71.8364 51.4461H47.8132ZM72.3148 65.4226L75.3478 71.9741H69.2804L72.3148 65.4226ZM47.3361 65.4226L50.3692 71.9741H44.3031L47.3361 65.4226Z" fill="url(#paint23_linear_864_3657)"/>
<path d="M54.1553 59.1789V81.1647L56.1289 82.1683V59.1789H54.1553Z" fill="url(#paint24_linear_864_3657)"/>
<path d="M63.522 59.1789V82.1683L65.4956 81.1647V59.1789H63.522Z" fill="url(#paint25_linear_864_3657)"/>
<path d="M52.4976 49.4377H67.1537V47.4293H52.4976V49.4377Z" fill="url(#paint26_linear_864_3657)"/>
<path d="M0.866211 64.0001C0.866211 97.0846 27.315 124 59.8256 124C92.3362 124 118.785 97.0846 118.785 64.0001C118.785 30.9162 92.3362 4 59.8256 4C27.315 4 0.866211 30.9162 0.866211 64.0001ZM2.83943 64.0001C2.83943 32.0231 28.4031 6.00792 59.8256 6.00792C91.2475 6.00792 116.811 32.0231 116.811 64.0001C116.811 95.9767 91.2475 121.992 59.8256 121.992C28.4031 121.992 2.83943 95.9767 2.83943 64.0001Z" fill="url(#paint27_linear_864_3657)"/>
<path d="M11.7295 56.6483C11.582 57.5312 12.0406 58.113 12.6411 58.2174C13.3276 58.3367 13.6387 57.8553 13.8809 57.3739C14.1126 56.9141 14.2813 56.4544 14.6549 56.5195C14.9662 56.5737 15.0754 56.826 15.0133 57.1298C14.9524 57.462 14.7215 57.6343 14.4675 57.6071L14.3246 58.4629C15.0208 58.532 15.5101 58.056 15.6431 57.2613C15.7768 56.4612 15.4566 55.8238 14.7688 55.7045C14.063 55.5797 13.7607 56.0638 13.5235 56.548C13.2966 57.0104 13.1294 57.4729 12.7267 57.4037C12.4536 57.3562 12.2988 57.1067 12.3604 56.7392C12.4202 56.3785 12.6566 56.2076 12.9662 56.2388L13.1056 55.4048C13.042 55.3953 12.9802 55.3898 12.9199 55.3898C12.2948 55.3898 11.8522 55.9133 11.7295 56.6483Z" fill="url(#paint28_linear_864_3657)"/>
<path d="M11.0423 64.6062C11.0243 65.7223 11.8297 66.6323 12.9934 66.6513C14.1509 66.6702 14.9848 65.7928 15.0028 64.6713C15.021 63.5606 14.2155 62.6398 13.0579 62.6208C13.0454 62.6208 13.0331 62.6208 13.0208 62.6208C11.8768 62.6208 11.0597 63.5077 11.0423 64.6062ZM13.006 65.8403C12.2197 65.8267 11.7234 65.3277 11.7346 64.617C11.7462 63.901 12.2582 63.4196 13.0446 63.4318C13.8315 63.4453 14.3165 63.9444 14.3049 64.6604C14.294 65.3616 13.806 65.8403 13.037 65.8403C13.0267 65.8403 13.0164 65.8403 13.006 65.8403Z" fill="url(#paint29_linear_864_3657)"/>
<path d="M11.4585 71.2879L11.7519 73.3533L12.3606 73.2625L12.1784 71.9795L15.398 71.5063L15.2867 70.7238L11.4585 71.2879Z" fill="url(#paint30_linear_864_3657)"/>
<path d="M13.0186 78.9108L13.2904 79.8289L17.4023 80.0744L17.1637 79.2702L13.9145 79.1427L16.5507 77.2021L16.3108 76.3925L13.0186 78.9108Z" fill="url(#paint31_linear_864_3657)"/>
<path d="M15.377 85.4027L15.7014 86.1188L19.211 84.4724L18.8861 83.7563L15.377 85.4027Z" fill="url(#paint32_linear_864_3657)"/>
<path d="M17.9043 90.3893L18.3239 91.0524L20.5542 89.5918L19.2733 92.5537L19.6927 93.2182L22.9476 91.0863L22.5282 90.4232L20.293 91.8864L21.5785 88.9206L21.1591 88.2574L17.9043 90.3893Z" fill="url(#paint33_linear_864_3657)"/>
<path d="M23.9285 95.6362C23.0729 96.4309 23.046 97.6311 23.8035 98.4773C24.498 99.2517 25.5046 99.2869 26.1905 98.8638L26.6897 98.4014L25.2787 96.8255L24.8407 97.2324L25.7364 98.2318C25.2526 98.5207 24.7414 98.4692 24.3381 98.0189C23.8529 97.4778 23.8845 96.7767 24.4658 96.2369C25.0354 95.7094 25.7243 95.7338 26.1909 96.2546C26.4673 96.5624 26.5568 96.9218 26.4346 97.2798L27.0359 97.9498C27.4407 97.231 27.3016 96.4132 26.7193 95.7636C26.3183 95.3161 25.7971 95.0842 25.2679 95.0842C24.8016 95.0842 24.3292 95.2646 23.9285 95.6362Z" fill="url(#paint34_linear_864_3657)"/>
<path d="M32.48 106.118L33.1716 106.557L33.778 106.06L35.0826 106.889L34.9093 107.662L35.6036 108.105L36.4765 104.014L35.7116 103.528L32.48 106.118ZM34.2843 105.638L35.6156 104.543L35.2332 106.241L34.2843 105.638Z" fill="url(#paint35_linear_864_3657)"/>
<path d="M40.2386 108.324C39.7975 109.413 40.2719 110.509 41.3007 110.939C42.0949 111.271 42.9131 111.115 43.4582 110.464L42.6333 110.12C42.3201 110.403 41.9443 110.447 41.5592 110.285C40.9342 110.023 40.6783 109.368 40.9755 108.633C41.2754 107.893 41.9083 107.615 42.5333 107.877C42.9171 108.038 43.1557 108.338 43.1837 108.758L44.0085 109.104C44.0685 108.258 43.5981 107.554 42.8039 107.222C42.5413 107.112 42.2748 107.059 42.0163 107.059C41.258 107.059 40.5664 107.512 40.2386 108.324Z" fill="url(#paint36_linear_864_3657)"/>
<path d="M47.7372 111.076C47.4866 112.226 48.137 113.223 49.2244 113.468C50.0626 113.657 50.8435 113.36 51.2699 112.623L50.3997 112.428C50.1386 112.762 49.7747 112.87 49.3696 112.778C48.71 112.63 48.3475 112.028 48.5154 111.252C48.686 110.47 49.263 110.086 49.924 110.235C50.3291 110.327 50.6143 110.581 50.7116 110.99L51.5831 111.187C51.5005 110.342 50.9181 109.732 50.0799 109.543C49.9227 109.507 49.7667 109.491 49.6148 109.491C48.718 109.491 47.9517 110.091 47.7372 111.076Z" fill="url(#paint37_linear_864_3657)"/>
<path d="M55.6543 114.443L57.8944 114.587L57.9331 113.945L56.4685 113.852L56.5325 112.81L57.8318 112.893L57.8704 112.269L56.5711 112.187L56.6311 111.202L58.0957 111.294L58.1356 110.653L55.8968 110.51L55.6543 114.443Z" fill="url(#paint38_linear_864_3657)"/>
<path d="M63.5246 110.468C62.7304 110.535 62.2013 111.008 62.2586 111.716C62.3679 113.137 64.3135 112.461 64.3815 113.309C64.4042 113.59 64.2043 113.804 63.8405 113.834C63.482 113.864 63.2608 113.673 63.2128 113.361L62.3852 113.43C62.4559 114.171 63.1089 114.546 63.9084 114.478C64.7866 114.407 65.2277 113.81 65.1771 113.191C65.0665 111.81 63.1262 112.413 63.0622 111.626C63.0369 111.306 63.2514 111.136 63.5553 111.121C63.8871 111.099 64.107 111.285 64.1443 111.541L64.9945 111.471C64.8959 110.821 64.4002 110.46 63.7032 110.46C63.6459 110.46 63.5859 110.463 63.5246 110.468Z" fill="url(#paint39_linear_864_3657)"/>
<path d="M70.2172 109.387C69.4416 109.576 68.9885 110.125 69.1511 110.817C69.4709 112.206 71.2939 111.236 71.4872 112.063C71.5525 112.338 71.3872 112.581 71.0314 112.667C70.6809 112.752 70.4344 112.597 70.3398 112.295L69.5322 112.492C69.7121 113.213 70.4131 113.483 71.1953 113.293C72.0522 113.086 72.3987 112.428 72.2574 111.824C71.9416 110.475 70.1119 111.372 69.932 110.604C69.86 110.291 70.0466 110.09 70.3451 110.029C70.6689 109.956 70.9155 110.105 70.9901 110.353L71.8203 110.151C71.6537 109.613 71.2273 109.329 70.6716 109.329C70.529 109.329 70.3758 109.348 70.2172 109.387Z" fill="url(#paint40_linear_864_3657)"/>
<path d="M79.7456 105.967L80.0414 106.529L80.9503 106.032L82.4815 108.94L83.1651 108.567L81.6326 105.659L82.5415 105.164L82.2456 104.603L79.7456 105.967Z" fill="url(#paint41_linear_864_3657)"/>
<path d="M86.9991 101.285C86.1315 101.959 85.921 103.172 86.6233 104.108C87.3295 105.049 88.5356 105.16 89.4031 104.486C90.2733 103.81 90.4759 102.603 89.7696 101.663C89.3645 101.122 88.7954 100.853 88.2184 100.853C87.796 100.853 87.3695 100.997 86.9991 101.285ZM87.2576 103.616C86.7805 102.98 86.8631 102.284 87.4228 101.849C87.9772 101.419 88.6595 101.519 89.1366 102.155C89.6137 102.791 89.5364 103.496 88.982 103.928C88.7581 104.101 88.5129 104.188 88.2677 104.188C87.9039 104.188 87.5428 103.997 87.2576 103.616Z" fill="url(#paint42_linear_864_3657)"/>
<path d="M95.6504 92.5224L97.8039 94.2014C98.0464 94.3899 98.1117 94.6258 97.9372 94.8591C97.7586 95.0964 97.5094 95.0937 97.2469 94.8957L96.7751 95.5223C97.3948 96.005 98.0518 95.864 98.4929 95.2781C98.9273 94.7018 98.8847 94.044 98.2797 93.5707L96.1248 91.8918L95.6504 92.5224Z" fill="url(#paint43_linear_864_3657)"/>
<path d="M99.6308 86.1377L101.731 87.3054C102.197 87.5644 102.303 87.9563 102.064 88.4025C101.828 88.8419 101.447 88.9639 100.981 88.7049L98.8793 87.5386L98.5088 88.2316L100.604 89.3952C101.498 89.8929 102.271 89.5118 102.677 88.7551C103.082 87.9984 102.996 87.102 102.1 86.6042L100.005 85.4407L99.6308 86.1377Z" fill="url(#paint44_linear_864_3657)"/>
<path d="M102.06 80.3239C101.794 81.0887 102 81.7736 102.659 82.0123C103.344 82.2632 103.725 81.8197 104.045 81.3776C104.339 80.968 104.58 80.5598 104.959 80.6968C105.219 80.7917 105.329 81.0643 105.207 81.4142C105.085 81.76 104.824 81.8862 104.524 81.8021L104.246 82.5981C104.939 82.8382 105.544 82.3866 105.812 81.6163C106.108 80.7714 105.754 80.1177 105.18 79.9102C104.511 79.6675 104.122 80.1069 103.798 80.5463C103.5 80.9518 103.258 81.3559 102.908 81.2284C102.611 81.1213 102.547 80.8528 102.659 80.5639C102.776 80.2479 103.032 80.1191 103.277 80.1896L103.564 79.3719C103.448 79.3393 103.336 79.3244 103.228 79.3244C102.705 79.3244 102.28 79.6946 102.06 80.3239Z" fill="url(#paint45_linear_864_3657)"/>
<path d="M103.617 75.1516L104.231 75.2723L104.427 74.243L107.609 74.8709L107.757 74.0952L104.575 73.4673L104.771 72.438L104.156 72.3173L103.617 75.1516Z" fill="url(#paint46_linear_864_3657)"/>
<path d="M104.595 68.2529L108.454 68.4943L108.502 67.7064L104.641 67.465L104.595 68.2529Z" fill="url(#paint47_linear_864_3657)"/>
<path d="M107.136 60.2557C107.527 60.4116 107.733 60.7358 107.766 61.1562C107.818 61.8424 107.357 62.3713 106.579 62.4323C105.794 62.4933 105.265 62.0431 105.213 61.3569C105.181 60.9351 105.338 60.5839 105.694 60.3696L105.625 59.4637C104.856 59.7905 104.451 60.535 104.516 61.4057C104.603 62.5367 105.485 63.3328 106.64 63.2419C107.794 63.1511 108.542 62.2275 108.455 61.0965C108.39 60.2259 107.882 59.5532 107.067 59.3511L107.136 60.2557Z" fill="url(#paint48_linear_864_3657)"/>
<path d="M106.366 52.4809L106.706 53.9347L105.709 54.1761L105.406 52.8877L104.809 53.0328L105.111 54.3212L104.167 54.5504L103.827 53.0966L103.213 53.2458L103.734 55.4671L107.5 54.5531L106.98 52.3331L106.366 52.4809Z" fill="url(#paint49_linear_864_3657)"/>
<path d="M36.438 40.3231V81.4197L59.8255 97.9335L83.2116 81.4197V40.3231H36.438ZM38.373 80.3904V42.2515H81.278V80.3904L59.8255 95.5385L38.373 80.3904Z" fill="url(#paint50_linear_864_3657)"/>
<path d="M47.8132 51.4461C45.164 51.4461 43.0064 53.6417 43.0064 56.3377C43.0064 58.7964 44.7988 60.8306 47.1229 61.1737L41.1914 73.9812H53.4808L47.5707 61.2171C47.652 61.2212 47.7319 61.2293 47.8132 61.2293C50.4638 61.2293 52.62 59.0351 52.62 56.3377H50.6477C50.6477 57.9285 49.3764 59.2222 47.8132 59.2222C46.2514 59.2222 44.9801 57.9285 44.9801 56.3377C44.9801 54.7483 46.2514 53.4546 47.8132 53.4546H58.8393V88.3509H60.8116V53.4546H71.8364C73.3995 53.4546 74.6708 54.7483 74.6708 56.3377C74.6708 57.9285 73.3995 59.2222 71.8364 59.2222C70.2745 59.2222 69.0032 57.9285 69.0032 56.3377H67.0296C67.0296 59.0351 69.1858 61.2293 71.8364 61.2293C71.919 61.2293 71.9989 61.2212 72.0802 61.2171L66.1701 73.9812H78.4595L72.528 61.1737C74.8507 60.8306 76.6431 58.7964 76.6431 56.3377C76.6431 53.6417 74.4869 51.4461 71.8364 51.4461H47.8132ZM72.3148 65.4226L75.3478 71.9741H69.2804L72.3148 65.4226ZM47.3361 65.4226L50.3692 71.9741H44.3031L47.3361 65.4226Z" fill="url(#paint51_linear_864_3657)"/>
<path d="M54.1553 59.1789V81.1647L56.1289 82.1683V59.1789H54.1553Z" fill="url(#paint52_linear_864_3657)"/>
<path d="M63.522 59.1789V82.1683L65.4956 81.1647V59.1789H63.522Z" fill="url(#paint53_linear_864_3657)"/>
<path d="M52.4976 49.4377H67.1537V47.4293H52.4976V49.4377Z" fill="url(#paint54_linear_864_3657)"/>
<path d="M16.7055 45.4499L16.2483 46.7202L12.5296 45.5681L12.1164 46.7162L11.0618 46.3895L12.3444 42.8262L13.399 43.1529L12.9869 44.2978L16.7055 45.4499Z" fill="#B26F41"/>
<path d="M21.1667 36.3671L20.4506 37.5196L18.6543 36.5588L17.8262 37.8914L19.6225 38.8521L18.9064 40.0047L14.5 37.6478L15.2162 36.4953L16.8497 37.369L17.6778 36.0365L16.0442 35.1628L16.7604 34.0102L21.1667 36.3671Z" fill="#B26F41"/>
<path d="M26.0573 30.2813L24.0231 32.4409L20.1416 29.2938L22.1758 27.1342L23.0174 27.8166L21.9089 28.9934L22.5196 29.4885L23.546 28.3987L24.3877 29.0811L23.3612 30.1709L24.0939 30.765L25.2024 29.5882L26.0573 30.2813Z" fill="#B26F41"/>
<path d="M34.61 23.3282L31.7414 20.8264L31.7147 20.8416C31.774 20.9151 31.8515 21.0162 31.9471 21.1449C32.0448 21.2725 32.1483 21.4111 32.2577 21.5608C32.3672 21.7104 32.4689 21.8566 32.5629 21.9994L33.7567 23.812L32.716 24.4019L29.9675 20.2286L31.5315 19.342L34.3898 21.7909L34.4136 21.7774L33.3513 18.3104L34.9183 17.4221L37.6667 21.5954L36.5874 22.2073L35.3823 20.3775C35.2959 20.2462 35.2051 20.1043 35.11 19.9517C35.0157 19.7961 34.9277 19.65 34.8459 19.5134C34.7648 19.3738 34.7016 19.2633 34.6562 19.1819L34.6294 19.1971L35.7281 22.6944L34.61 23.3282Z" fill="#B26F41"/>
<path d="M45.9139 15.5161C46.1107 16.0628 46.1709 16.5494 46.0945 16.9758C46.0181 17.4022 45.8245 17.7648 45.5135 18.0637C45.2039 18.3598 44.7956 18.5864 44.2884 18.7435L42.7442 19.2219L41.052 14.52L42.704 14.0082C43.2177 13.8491 43.6843 13.8011 44.1037 13.8642C44.5232 13.9273 44.8856 14.0974 45.191 14.3745C45.4986 14.651 45.7395 15.0315 45.9139 15.5161ZM44.5915 15.9758C44.4889 15.6906 44.3648 15.4669 44.2194 15.3047C44.0753 15.1396 43.9094 15.0349 43.7217 14.9906C43.5332 14.9441 43.3214 14.9573 43.0863 15.0301L42.7109 15.1464L43.6588 17.7804L43.9461 17.6913C44.3379 17.57 44.5851 17.3695 44.6877 17.0899C44.7895 16.8081 44.7574 16.4367 44.5915 15.9758Z" fill="#B26F41"/>
<path d="M55.8377 16.2809L54.286 16.4603L53.1104 15.024L52.3608 16.6828L50.8431 16.8582L52.1496 14.134L50.2765 11.8942L51.7637 11.7224L52.8657 13.1499L53.5225 11.5191L55.0538 11.3421L53.8206 14.0475L55.8377 16.2809Z" fill="#B26F41"/>
<path d="M64.247 16.1644L65.0379 11.2303L66.3754 11.4148L65.757 15.2723L67.6632 15.5353L67.4907 16.6119L64.247 16.1644Z" fill="#B26F41"/>
<path d="M74.739 18.2267L74.8208 17.2726L73.2699 16.7925L72.7113 17.599L71.2943 17.1603L74.5497 12.9209L76.2704 13.4536L76.1495 18.6633L74.739 18.2267ZM74.9278 16.1476L74.9997 15.3121C75.008 15.2217 75.0193 15.0929 75.0334 14.9257C75.0484 14.7564 75.0648 14.5828 75.0829 14.4049C75.1038 14.2255 75.1227 14.0788 75.1395 13.9649C75.0813 14.066 75.0052 14.1902 74.9112 14.3374C74.8201 14.4832 74.7271 14.6272 74.6324 14.7694C74.5399 14.9124 74.461 15.0309 74.3957 15.1251L73.9124 15.8333L74.9278 16.1476Z" fill="#B26F41"/>
<path d="M88.5519 18.9882L84.7137 22.5346L83.3291 21.7405L84.1212 19.6906C84.1361 19.6519 84.1617 19.5867 84.1983 19.495C84.2368 19.4043 84.2799 19.3007 84.3277 19.1839C84.3774 19.0683 84.4268 18.9551 84.476 18.8444C84.5284 18.7329 84.5741 18.6398 84.6129 18.5651C84.5582 18.6308 84.4879 18.7097 84.4019 18.8019C84.3171 18.8922 84.2292 18.9832 84.1379 19.0751C84.0487 19.168 83.967 19.2496 83.8929 19.3198C83.8208 19.3912 83.7694 19.4416 83.7387 19.4712L82.1135 21.0434L80.7288 20.2493L82.4262 15.4751L83.5559 16.123L82.6382 18.4783C82.6159 18.5363 82.5831 18.6184 82.5397 18.7246C82.4995 18.83 82.453 18.9448 82.4002 19.0692C82.3507 19.1928 82.3017 19.3114 82.2532 19.4252C82.2047 19.5389 82.1617 19.6322 82.1241 19.705C82.2183 19.5965 82.3281 19.4747 82.4536 19.3396C82.5811 19.2057 82.7118 19.071 82.8458 18.9355C82.983 18.7993 83.1107 18.6733 83.2287 18.5576C83.3468 18.4418 83.4445 18.3485 83.5219 18.2775L84.9524 16.9239L86.0376 17.5463L85.3602 19.3318C85.3256 19.4247 85.2783 19.5469 85.2182 19.6986C85.1614 19.8494 85.097 20.0117 85.0251 20.1853C84.9551 20.3601 84.8834 20.5313 84.81 20.6989C84.7378 20.8645 84.6708 21.0082 84.6088 21.1299C84.6838 21.0419 84.7832 20.9338 84.9069 20.8055C85.0318 20.6754 85.1536 20.55 85.2723 20.4293C85.3942 20.3079 85.4864 20.2166 85.5489 20.1556L87.4222 18.3404L88.5519 18.9882Z" fill="#B26F41"/>
<path d="M93.8896 27.4254C93.6907 27.6096 93.4516 27.7379 93.1726 27.8105C92.8952 27.8815 92.5954 27.8695 92.2731 27.7746C91.9525 27.6813 91.6253 27.4794 91.2916 27.1691C91.1247 27.0139 90.9854 26.8704 90.8736 26.7386C90.7635 26.6083 90.6709 26.4772 90.5959 26.3454C90.5226 26.212 90.4551 26.0655 90.3934 25.9058L91.2763 25.0885C91.3746 25.366 91.4979 25.6234 91.6463 25.8607C91.7964 26.0964 91.9532 26.2903 92.1167 26.4424C92.2152 26.5339 92.307 26.5976 92.3921 26.6333C92.479 26.6706 92.5575 26.6846 92.6276 26.6754C92.6995 26.6646 92.7621 26.6345 92.8156 26.585C92.8792 26.5261 92.9102 26.4557 92.9086 26.3735C92.9104 26.2914 92.8871 26.1829 92.8388 26.048C92.7905 25.9131 92.723 25.7387 92.6364 25.5247C92.5648 25.3402 92.5074 25.1658 92.4641 25.0015C92.4225 24.8387 92.4052 24.6814 92.412 24.5295C92.4222 24.3776 92.4641 24.2289 92.5378 24.0833C92.6114 23.9377 92.7269 23.7921 92.884 23.6466C93.1198 23.4284 93.3747 23.2992 93.6487 23.2592C93.926 23.2193 94.2083 23.2583 94.4955 23.3764C94.7843 23.4961 95.0648 23.6824 95.3368 23.9353C95.5754 24.1572 95.7631 24.3813 95.8998 24.6077C96.0382 24.8357 96.149 25.052 96.2323 25.2567L95.1644 25.6833C95.0795 25.4708 94.982 25.2747 94.8719 25.0948C94.7636 24.9133 94.6443 24.7621 94.5141 24.6411C94.429 24.5619 94.3481 24.5068 94.2713 24.4757C94.1978 24.4447 94.1302 24.433 94.0683 24.4406C94.0082 24.4499 93.9556 24.4754 93.9104 24.5172C93.8536 24.5698 93.8242 24.6372 93.8225 24.7193C93.8224 24.803 93.8473 24.9177 93.8973 25.0635C93.9506 25.2092 94.0255 25.4046 94.1221 25.6496C94.2204 25.8899 94.2853 26.1116 94.3168 26.3146C94.35 26.5161 94.3339 26.7075 94.2686 26.8888C94.2066 27.07 94.0803 27.2489 93.8896 27.4254Z" fill="#B26F41"/>
<path d="M103.108 32.7794L100.546 34.355C100.189 34.5746 99.8321 34.7007 99.4754 34.7332C99.1206 34.7646 98.7787 34.6946 98.4496 34.5234C98.1225 34.3509 97.8192 34.0691 97.5397 33.6779C97.1397 33.118 96.9848 32.5981 97.075 32.1183C97.1653 31.6385 97.485 31.2297 98.0344 30.8919L100.623 29.3002L101.411 30.4043L98.9134 31.9405C98.6125 32.1255 98.4326 32.3135 98.3736 32.5046C98.3145 32.6957 98.3598 32.896 98.5095 33.1055C98.6168 33.2557 98.7333 33.3602 98.8591 33.4189C98.9868 33.4765 99.13 33.4872 99.2886 33.4511C99.4485 33.4168 99.6293 33.3376 99.8312 33.2134L102.323 31.6808L103.108 32.7794Z" fill="#B26F41"/>
<path d="M101.325 39.3477L105.911 37.363L106.52 38.5753L101.934 40.56L101.325 39.3477Z" fill="#B26F41"/>
<path d="M103.848 44.9872L103.421 43.7065L107.163 42.6317L106.776 41.4742L107.838 41.1694L109.036 44.7618L107.975 45.0666L107.59 43.9123L103.848 44.9872Z" fill="#B26F41"/>
<defs>
<linearGradient id="paint0_linear_864_3657" x1="59.3232" y1="-13.1004" x2="-12.2552" y2="92.9892" gradientUnits="userSpaceOnUse">
<stop stop-color="#DF9B60"/>
<stop offset="1" stop-color="#B26F41"/>
</linearGradient>
<linearGradient id="paint1_linear_864_3657" x1="62.3429" y1="-11.0631" x2="-9.23577" y2="95.0275" gradientUnits="userSpaceOnUse">
<stop stop-color="#DF9B60"/>
<stop offset="1" stop-color="#B26F41"/>
</linearGradient>
<linearGradient id="paint2_linear_864_3657" x1="65.6824" y1="-8.81026" x2="-5.89688" y2="97.28" gradientUnits="userSpaceOnUse">
<stop stop-color="#DF9B60"/>
<stop offset="1" stop-color="#B26F41"/>
</linearGradient>
<linearGradient id="paint3_linear_864_3657" x1="70.5849" y1="-5.50264" x2="-0.994483" y2="100.588" gradientUnits="userSpaceOnUse">
<stop stop-color="#DF9B60"/>
<stop offset="1" stop-color="#B26F41"/>
</linearGradient>
<linearGradient id="paint4_linear_864_3657" x1="74.496" y1="-2.86362" x2="2.91655" y2="103.227" gradientUnits="userSpaceOnUse">
<stop stop-color="#DF9B60"/>
<stop offset="1" stop-color="#B26F41"/>
</linearGradient>
<linearGradient id="paint5_linear_864_3657" x1="79.2965" y1="0.375088" x2="7.71739" y2="106.465" gradientUnits="userSpaceOnUse">
<stop stop-color="#DF9B60"/>
<stop offset="1" stop-color="#B26F41"/>
</linearGradient>
<linearGradient id="paint6_linear_864_3657" x1="85.5207" y1="4.57572" x2="13.9424" y2="110.665" gradientUnits="userSpaceOnUse">
<stop stop-color="#DF9B60"/>
<stop offset="1" stop-color="#B26F41"/>
</linearGradient>
<linearGradient id="paint7_linear_864_3657" x1="96.1658" y1="11.7568" x2="24.5862" y2="117.847" gradientUnits="userSpaceOnUse">
<stop stop-color="#DF9B60"/>
<stop offset="1" stop-color="#B26F41"/>
</linearGradient>
<linearGradient id="paint8_linear_864_3657" x1="102.602" y1="16.1004" x2="31.0233" y2="122.191" gradientUnits="userSpaceOnUse">
<stop stop-color="#DF9B60"/>
<stop offset="1" stop-color="#B26F41"/>
</linearGradient>
<linearGradient id="paint9_linear_864_3657" x1="108.99" y1="20.4094" x2="37.4104" y2="126.5" gradientUnits="userSpaceOnUse">
<stop stop-color="#DF9B60"/>
<stop offset="1" stop-color="#B26F41"/>
</linearGradient>
<linearGradient id="paint10_linear_864_3657" x1="114.501" y1="24.1275" x2="42.9222" y2="130.218" gradientUnits="userSpaceOnUse">
<stop stop-color="#DF9B60"/>
<stop offset="1" stop-color="#B26F41"/>
</linearGradient>
<linearGradient id="paint11_linear_864_3657" x1="119.198" y1="27.2967" x2="47.6183" y2="133.388" gradientUnits="userSpaceOnUse">
<stop stop-color="#DF9B60"/>
<stop offset="1" stop-color="#B26F41"/>
</linearGradient>
<linearGradient id="paint12_linear_864_3657" x1="123.541" y1="30.2263" x2="51.9609" y2="136.317" gradientUnits="userSpaceOnUse">
<stop stop-color="#DF9B60"/>
<stop offset="1" stop-color="#B26F41"/>
</linearGradient>
<linearGradient id="paint13_linear_864_3657" x1="129.171" y1="34.0261" x2="57.5934" y2="140.117" gradientUnits="userSpaceOnUse">
<stop stop-color="#DF9B60"/>
<stop offset="1" stop-color="#B26F41"/>
</linearGradient>
<linearGradient id="paint14_linear_864_3657" x1="131.875" y1="35.8497" x2="60.2958" y2="141.941" gradientUnits="userSpaceOnUse">
<stop stop-color="#DF9B60"/>
<stop offset="1" stop-color="#B26F41"/>
</linearGradient>
<linearGradient id="paint15_linear_864_3657" x1="133.971" y1="37.265" x2="62.3921" y2="143.355" gradientUnits="userSpaceOnUse">
<stop stop-color="#DF9B60"/>
<stop offset="1" stop-color="#B26F41"/>
</linearGradient>
<linearGradient id="paint16_linear_864_3657" x1="133.861" y1="37.189" x2="62.2812" y2="143.281" gradientUnits="userSpaceOnUse">
<stop stop-color="#DF9B60"/>
<stop offset="1" stop-color="#B26F41"/>
</linearGradient>
<linearGradient id="paint17_linear_864_3657" x1="132.888" y1="36.533" x2="61.3084" y2="142.623" gradientUnits="userSpaceOnUse">
<stop stop-color="#DF9B60"/>
<stop offset="1" stop-color="#B26F41"/>
</linearGradient>
<linearGradient id="paint18_linear_864_3657" x1="130.901" y1="35.1926" x2="59.3218" y2="141.283" gradientUnits="userSpaceOnUse">
<stop stop-color="#DF9B60"/>
<stop offset="1" stop-color="#B26F41"/>
</linearGradient>
<linearGradient id="paint19_linear_864_3657" x1="128.822" y1="33.7904" x2="57.2432" y2="139.881" gradientUnits="userSpaceOnUse">
<stop stop-color="#DF9B60"/>
<stop offset="1" stop-color="#B26F41"/>
</linearGradient>
<linearGradient id="paint20_linear_864_3657" x1="125.733" y1="31.7059" x2="54.1534" y2="137.797" gradientUnits="userSpaceOnUse">
<stop stop-color="#DF9B60"/>
<stop offset="1" stop-color="#B26F41"/>
</linearGradient>
<linearGradient id="paint21_linear_864_3657" x1="121.623" y1="28.9327" x2="50.0437" y2="135.023" gradientUnits="userSpaceOnUse">
<stop stop-color="#DF9B60"/>
<stop offset="1" stop-color="#B26F41"/>
</linearGradient>
<linearGradient id="paint22_linear_864_3657" x1="95.8902" y1="5.51486" x2="19.0173" y2="119.45" gradientUnits="userSpaceOnUse">
<stop stop-color="#DF9B60"/>
<stop offset="1" stop-color="#B26F41"/>
</linearGradient>
<linearGradient id="paint23_linear_864_3657" x1="95.3878" y1="11.2319" x2="23.8084" y2="117.323" gradientUnits="userSpaceOnUse">
<stop stop-color="#DF9B60"/>
<stop offset="1" stop-color="#B26F41"/>
</linearGradient>
<linearGradient id="paint24_linear_864_3657" x1="92.9424" y1="12.6541" x2="24.3171" y2="114.365" gradientUnits="userSpaceOnUse">
<stop stop-color="#DF9B60"/>
<stop offset="1" stop-color="#B26F41"/>
</linearGradient>
<linearGradient id="paint25_linear_864_3657" x1="100.611" y1="14.7566" x2="29.0318" y2="120.847" gradientUnits="userSpaceOnUse">
<stop stop-color="#DF9B60"/>
<stop offset="1" stop-color="#B26F41"/>
</linearGradient>
<linearGradient id="paint26_linear_864_3657" x1="87.6721" y1="5.69149" x2="16.0928" y2="111.781" gradientUnits="userSpaceOnUse">
<stop stop-color="#DF9B60"/>
<stop offset="1" stop-color="#B26F41"/>
</linearGradient>
<linearGradient id="paint27_linear_864_3657" x1="94.5657" y1="10.677" x2="22.9859" y2="116.768" gradientUnits="userSpaceOnUse">
<stop stop-color="#DF9B60"/>
<stop offset="1" stop-color="#B26F41"/>
</linearGradient>
<linearGradient id="paint28_linear_864_3657" x1="59.3232" y1="-13.1004" x2="-12.2552" y2="92.9892" gradientUnits="userSpaceOnUse">
<stop stop-color="#DF9B60"/>
<stop offset="1" stop-color="#B26F41"/>
</linearGradient>
<linearGradient id="paint29_linear_864_3657" x1="62.3429" y1="-11.0631" x2="-9.23577" y2="95.0275" gradientUnits="userSpaceOnUse">
<stop stop-color="#DF9B60"/>
<stop offset="1" stop-color="#B26F41"/>
</linearGradient>
<linearGradient id="paint30_linear_864_3657" x1="65.6824" y1="-8.81026" x2="-5.89688" y2="97.28" gradientUnits="userSpaceOnUse">
<stop stop-color="#DF9B60"/>
<stop offset="1" stop-color="#B26F41"/>
</linearGradient>
<linearGradient id="paint31_linear_864_3657" x1="70.5849" y1="-5.50264" x2="-0.994483" y2="100.588" gradientUnits="userSpaceOnUse">
<stop stop-color="#DF9B60"/>
<stop offset="1" stop-color="#B26F41"/>
</linearGradient>
<linearGradient id="paint32_linear_864_3657" x1="74.496" y1="-2.86362" x2="2.91655" y2="103.227" gradientUnits="userSpaceOnUse">
<stop stop-color="#DF9B60"/>
<stop offset="1" stop-color="#B26F41"/>
</linearGradient>
<linearGradient id="paint33_linear_864_3657" x1="79.2965" y1="0.375088" x2="7.71739" y2="106.465" gradientUnits="userSpaceOnUse">
<stop stop-color="#DF9B60"/>
<stop offset="1" stop-color="#B26F41"/>
</linearGradient>
<linearGradient id="paint34_linear_864_3657" x1="85.5207" y1="4.57572" x2="13.9424" y2="110.665" gradientUnits="userSpaceOnUse">
<stop stop-color="#DF9B60"/>
<stop offset="1" stop-color="#B26F41"/>
</linearGradient>
<linearGradient id="paint35_linear_864_3657" x1="96.1658" y1="11.7568" x2="24.5862" y2="117.847" gradientUnits="userSpaceOnUse">
<stop stop-color="#DF9B60"/>
<stop offset="1" stop-color="#B26F41"/>
</linearGradient>
<linearGradient id="paint36_linear_864_3657" x1="102.602" y1="16.1004" x2="31.0233" y2="122.191" gradientUnits="userSpaceOnUse">
<stop stop-color="#DF9B60"/>
<stop offset="1" stop-color="#B26F41"/>
</linearGradient>
<linearGradient id="paint37_linear_864_3657" x1="108.99" y1="20.4094" x2="37.4104" y2="126.5" gradientUnits="userSpaceOnUse">
<stop stop-color="#DF9B60"/>
<stop offset="1" stop-color="#B26F41"/>
</linearGradient>
<linearGradient id="paint38_linear_864_3657" x1="114.501" y1="24.1275" x2="42.9222" y2="130.218" gradientUnits="userSpaceOnUse">
<stop stop-color="#DF9B60"/>
<stop offset="1" stop-color="#B26F41"/>
</linearGradient>
<linearGradient id="paint39_linear_864_3657" x1="119.198" y1="27.2967" x2="47.6183" y2="133.388" gradientUnits="userSpaceOnUse">
<stop stop-color="#DF9B60"/>
<stop offset="1" stop-color="#B26F41"/>
</linearGradient>
<linearGradient id="paint40_linear_864_3657" x1="123.541" y1="30.2263" x2="51.9609" y2="136.317" gradientUnits="userSpaceOnUse">
<stop stop-color="#DF9B60"/>
<stop offset="1" stop-color="#B26F41"/>
</linearGradient>
<linearGradient id="paint41_linear_864_3657" x1="129.171" y1="34.0261" x2="57.5934" y2="140.117" gradientUnits="userSpaceOnUse">
<stop stop-color="#DF9B60"/>
<stop offset="1" stop-color="#B26F41"/>
</linearGradient>
<linearGradient id="paint42_linear_864_3657" x1="131.875" y1="35.8497" x2="60.2958" y2="141.941" gradientUnits="userSpaceOnUse">
<stop stop-color="#DF9B60"/>
<stop offset="1" stop-color="#B26F41"/>
</linearGradient>
<linearGradient id="paint43_linear_864_3657" x1="133.971" y1="37.265" x2="62.3921" y2="143.355" gradientUnits="userSpaceOnUse">
<stop stop-color="#DF9B60"/>
<stop offset="1" stop-color="#B26F41"/>
</linearGradient>
<linearGradient id="paint44_linear_864_3657" x1="133.861" y1="37.189" x2="62.2812" y2="143.281" gradientUnits="userSpaceOnUse">
<stop stop-color="#DF9B60"/>
<stop offset="1" stop-color="#B26F41"/>
</linearGradient>
<linearGradient id="paint45_linear_864_3657" x1="132.888" y1="36.533" x2="61.3084" y2="142.623" gradientUnits="userSpaceOnUse">
<stop stop-color="#DF9B60"/>
<stop offset="1" stop-color="#B26F41"/>
</linearGradient>
<linearGradient id="paint46_linear_864_3657" x1="130.901" y1="35.1926" x2="59.3218" y2="141.283" gradientUnits="userSpaceOnUse">
<stop stop-color="#DF9B60"/>
<stop offset="1" stop-color="#B26F41"/>
</linearGradient>
<linearGradient id="paint47_linear_864_3657" x1="128.822" y1="33.7904" x2="57.2432" y2="139.881" gradientUnits="userSpaceOnUse">
<stop stop-color="#DF9B60"/>
<stop offset="1" stop-color="#B26F41"/>
</linearGradient>
<linearGradient id="paint48_linear_864_3657" x1="125.733" y1="31.7059" x2="54.1534" y2="137.797" gradientUnits="userSpaceOnUse">
<stop stop-color="#DF9B60"/>
<stop offset="1" stop-color="#B26F41"/>
</linearGradient>
<linearGradient id="paint49_linear_864_3657" x1="121.623" y1="28.9327" x2="50.0437" y2="135.023" gradientUnits="userSpaceOnUse">
<stop stop-color="#DF9B60"/>
<stop offset="1" stop-color="#B26F41"/>
</linearGradient>
<linearGradient id="paint50_linear_864_3657" x1="95.8902" y1="5.51486" x2="19.0173" y2="119.45" gradientUnits="userSpaceOnUse">
<stop stop-color="#DF9B60"/>
<stop offset="1" stop-color="#B26F41"/>
</linearGradient>
<linearGradient id="paint51_linear_864_3657" x1="95.3878" y1="11.2319" x2="23.8084" y2="117.323" gradientUnits="userSpaceOnUse">
<stop stop-color="#DF9B60"/>
<stop offset="1" stop-color="#B26F41"/>
</linearGradient>
<linearGradient id="paint52_linear_864_3657" x1="92.9424" y1="12.6541" x2="24.3171" y2="114.365" gradientUnits="userSpaceOnUse">
<stop stop-color="#DF9B60"/>
<stop offset="1" stop-color="#B26F41"/>
</linearGradient>
<linearGradient id="paint53_linear_864_3657" x1="100.611" y1="14.7566" x2="29.0318" y2="120.847" gradientUnits="userSpaceOnUse">
<stop stop-color="#DF9B60"/>
<stop offset="1" stop-color="#B26F41"/>
</linearGradient>
<linearGradient id="paint54_linear_864_3657" x1="87.6721" y1="5.69149" x2="16.0928" y2="111.781" gradientUnits="userSpaceOnUse">
<stop stop-color="#DF9B60"/>
<stop offset="1" stop-color="#B26F41"/>
</linearGradient>
</defs>
</svg>
