<svg xmlns="http://www.w3.org/2000/svg" viewBox="0 0 750 500"><g id="freepik--background-complete--inject-8"><rect x="81.71" y="52.18" width="78.54" height="103.91" transform="translate(225.12 -16.84) rotate(90)" style="fill:#ebebeb"></rect><rect x="90.22" y="60.42" width="61.52" height="87.42" transform="translate(225.12 -16.84) rotate(90)" style="fill:#fff"></rect><rect x="100.78" y="75.43" width="40.41" height="57.42" transform="translate(225.12 -16.84) rotate(90)" style="fill:#ebebeb"></rect><rect x="172.93" y="64.87" width="2.36" height="78.54" style="fill:#dbdbdb"></rect><rect x="77.27" y="73.38" width="2.36" height="61.52" style="fill:#dbdbdb"></rect><path d="M151.78,119.77a7.18,7.18,0,1,1-7.18-7.18A7.17,7.17,0,0,1,151.78,119.77Z" style="fill:#c7c7c7"></path><rect x="587.39" y="145.75" width="78.54" height="103.91" transform="translate(824.37 -428.95) rotate(90)" style="fill:#ebebeb"></rect><rect x="595.9" y="154" width="61.52" height="87.42" transform="translate(824.37 -428.95) rotate(90)" style="fill:#fff"></rect><rect x="678.61" y="158.44" width="2.36" height="78.54" style="fill:#dbdbdb"></rect><rect x="582.95" y="166.95" width="2.36" height="61.52" style="fill:#dbdbdb"></rect><rect x="626.08" y="147.91" width="1.15" height="57.42" transform="translate(803.28 -450.03) rotate(90)" style="fill:#ebebeb"></rect><rect x="626.08" y="173.18" width="1.15" height="57.42" transform="translate(828.55 -424.77) rotate(90)" style="fill:#ebebeb"></rect><rect x="626.08" y="162.88" width="1.15" height="34.77" transform="translate(806.92 -446.4) rotate(90)" style="fill:#ebebeb"></rect><rect x="626.08" y="194.43" width="1.15" height="34.77" transform="translate(838.46 -414.85) rotate(90)" style="fill:#ebebeb"></rect><rect x="626.08" y="201.08" width="1.15" height="27.8" transform="translate(841.64 -411.67) rotate(90)" style="fill:#ebebeb"></rect><path d="M658.73,213.05a6.33,6.33,0,1,1-6.33-6.33A6.32,6.32,0,0,1,658.73,213.05Z" style="fill:#c7c7c7"></path><rect x="599.89" y="188.16" width="53.53" height="6.59" style="fill:#ebebeb"></rect><circle cx="380" cy="149.39" r="90.12" transform="translate(5.66 312.46) rotate(-45)" style="fill:#ebebeb"></circle><path d="M380,224.15a74.76,74.76,0,1,1,74.76-74.76A74.84,74.84,0,0,1,380,224.15Zm0-147.52a72.76,72.76,0,1,0,72.76,72.76A72.84,72.84,0,0,0,380,76.63Z" style="fill:#fff"></path><rect x="342.93" y="176.18" width="10.21" height="1.28" style="fill:#fff"></rect><rect x="342.93" y="176.18" width="10.21" height="1.28" style="opacity:0.1"></rect><rect x="343.7" y="131.44" width="8.67" height="44.74" style="fill:#fff"></rect><rect x="343.7" y="131.44" width="8.67" height="44.74" style="fill:#fff"></rect><path d="M344.6,175.15h0c-.08,0-.14-.09-.14-.2V133.64c0-.11.06-.2.14-.2h0c.08,0,.14.09.14.2V175C344.74,175.06,344.68,175.15,344.6,175.15Z" style="opacity:0.1"></path><path d="M345.37,175.15h0c-.08,0-.15-.09-.15-.2V133.64c0-.11.07-.2.15-.2h0c.07,0,.14.09.14.2V175C345.51,175.06,345.44,175.15,345.37,175.15Z" style="opacity:0.1"></path><path d="M346.13,175.15h0c-.08,0-.14-.09-.14-.2V133.64c0-.11.06-.2.14-.2h0c.08,0,.14.09.14.2V175C346.27,175.06,346.21,175.15,346.13,175.15Z" style="opacity:0.1"></path><path d="M346.89,175.15h0c-.08,0-.14-.09-.14-.2V133.64c0-.11.06-.2.14-.2h0c.08,0,.15.09.15.2V175C347,175.06,347,175.15,346.89,175.15Z" style="opacity:0.1"></path><path d="M347.66,175.15h0c-.08,0-.15-.09-.15-.2V133.64c0-.11.07-.2.15-.2h0c.08,0,.14.09.14.2V175C347.8,175.06,347.74,175.15,347.66,175.15Z" style="opacity:0.1"></path><path d="M348.42,175.15h0c-.08,0-.14-.09-.14-.2V133.64c0-.11.06-.2.14-.2h0c.08,0,.14.09.14.2V175C348.56,175.06,348.5,175.15,348.42,175.15Z" style="opacity:0.1"></path><path d="M349.18,175.15h0c-.07,0-.14-.09-.14-.2V133.64c0-.11.07-.2.14-.2h0c.08,0,.15.09.15.2V175C349.33,175.06,349.26,175.15,349.18,175.15Z" style="opacity:0.1"></path><path d="M350,175.15h0c-.08,0-.14-.09-.14-.2V133.64c0-.11.06-.2.14-.2h0c.08,0,.14.09.14.2V175C350.09,175.06,350,175.15,350,175.15Z" style="opacity:0.1"></path><path d="M350.71,175.15h0c-.08,0-.14-.09-.14-.2V133.64c0-.11.06-.2.14-.2h0c.08,0,.15.09.15.2V175C350.86,175.06,350.79,175.15,350.71,175.15Z" style="opacity:0.1"></path><path d="M351.48,175.15h0c-.08,0-.15-.09-.15-.2V133.64c0-.11.07-.2.15-.2h0c.08,0,.14.09.14.2V175C351.62,175.06,351.56,175.15,351.48,175.15Z" style="opacity:0.1"></path><polygon points="352.38 131.44 352.38 132.97 343.7 132.63 343.7 131.44 352.38 131.44" style="opacity:0.1"></polygon><rect x="342.32" y="177.46" width="11.45" height="2.31" style="fill:#fff"></rect><path d="M354.71,132.11a1.72,1.72,0,0,1-1.76,1.8c-1.63,0-1.72-1.79-1.72-1.79h-6.38s-.09,1.79-1.73,1.79a1.71,1.71,0,0,1-1.75-1.8,2,2,0,0,1,2.23-2.05h8.88A2,2,0,0,1,354.71,132.11Z" style="fill:#fff"></path><path d="M344.85,132.12a1.12,1.12,0,1,0-2.11.55.51.51,0,0,0,.93-.1c.13-.52-.36-.79-.18-1.1s.65-.26.94-.05A1.38,1.38,0,0,1,344.85,132.12Z" style="opacity:0.1"></path><path d="M351.23,132.12a1.12,1.12,0,1,1,2.11.55.51.51,0,0,1-.94-.1c-.13-.52.37-.79.19-1.1s-.66-.26-.94-.05A1.38,1.38,0,0,0,351.23,132.12Z" style="opacity:0.1"></path><rect x="364.24" y="176.18" width="10.21" height="1.28" style="fill:#fff"></rect><rect x="364.24" y="176.18" width="10.21" height="1.28" style="opacity:0.1"></rect><rect x="365.01" y="131.44" width="8.67" height="44.74" style="fill:#fff"></rect><rect x="365.01" y="131.44" width="8.67" height="44.74" style="fill:#fff"></rect><path d="M365.91,175.15h0c-.08,0-.14-.09-.14-.2V133.64c0-.11.06-.2.14-.2h0c.08,0,.14.09.14.2V175C366.05,175.06,366,175.15,365.91,175.15Z" style="opacity:0.1"></path><path d="M366.67,175.15h0c-.08,0-.14-.09-.14-.2V133.64c0-.11.06-.2.14-.2h0c.08,0,.15.09.15.2V175C366.82,175.06,366.75,175.15,366.67,175.15Z" style="opacity:0.1"></path><path d="M367.44,175.15h0c-.08,0-.15-.09-.15-.2V133.64c0-.11.07-.2.15-.2h0c.08,0,.14.09.14.2V175C367.58,175.06,367.52,175.15,367.44,175.15Z" style="opacity:0.1"></path><path d="M368.2,175.15h0c-.08,0-.14-.09-.14-.2V133.64c0-.11.06-.2.14-.2h0c.08,0,.14.09.14.2V175C368.34,175.06,368.28,175.15,368.2,175.15Z" style="opacity:0.1"></path><path d="M369,175.15h0c-.08,0-.14-.09-.14-.2V133.64c0-.11.06-.2.14-.2h0c.08,0,.15.09.15.2V175C369.11,175.06,369,175.15,369,175.15Z" style="opacity:0.1"></path><path d="M369.73,175.15h0c-.08,0-.15-.09-.15-.2V133.64c0-.11.07-.2.15-.2h0c.08,0,.14.09.14.2V175C369.87,175.06,369.81,175.15,369.73,175.15Z" style="opacity:0.1"></path><path d="M370.49,175.15h0c-.08,0-.14-.09-.14-.2V133.64c0-.11.06-.2.14-.2h0c.08,0,.14.09.14.2V175C370.63,175.06,370.57,175.15,370.49,175.15Z" style="opacity:0.1"></path><path d="M371.26,175.15h0c-.08,0-.15-.09-.15-.2V133.64c0-.11.07-.2.15-.2h0c.07,0,.14.09.14.2V175C371.4,175.06,371.33,175.15,371.26,175.15Z" style="opacity:0.1"></path><path d="M372,175.15h0c-.08,0-.14-.09-.14-.2V133.64c0-.11.06-.2.14-.2h0c.08,0,.14.09.14.2V175C372.16,175.06,372.1,175.15,372,175.15Z" style="opacity:0.1"></path><path d="M372.78,175.15h0c-.08,0-.14-.09-.14-.2V133.64c0-.11.06-.2.14-.2h0c.08,0,.15.09.15.2V175C372.93,175.06,372.86,175.15,372.78,175.15Z" style="opacity:0.1"></path><polygon points="373.68 131.44 373.68 132.97 365.01 132.63 365.01 131.44 373.68 131.44" style="opacity:0.1"></polygon><rect x="363.62" y="177.46" width="11.45" height="2.31" style="fill:#fff"></rect><path d="M376,132.11a1.72,1.72,0,0,1-1.76,1.8c-1.64,0-1.73-1.79-1.73-1.79h-6.37s-.09,1.79-1.73,1.79a1.72,1.72,0,0,1-1.76-1.8,2,2,0,0,1,2.24-2.05h8.88A2,2,0,0,1,376,132.11Z" style="fill:#fff"></path><path d="M366.16,132.12a1.12,1.12,0,1,0-2.11.55.51.51,0,0,0,.93-.1c.13-.52-.37-.79-.19-1.1s.66-.26.95-.05A1.38,1.38,0,0,1,366.16,132.12Z" style="opacity:0.1"></path><path d="M372.53,132.12a1.12,1.12,0,1,1,2.11.55.51.51,0,0,1-.93-.1c-.13-.52.37-.79.19-1.1s-.66-.26-.95-.05A1.38,1.38,0,0,0,372.53,132.12Z" style="opacity:0.1"></path><rect x="385.55" y="176.18" width="10.21" height="1.28" style="fill:#fff"></rect><rect x="385.55" y="176.18" width="10.21" height="1.28" style="opacity:0.1"></rect><rect x="386.32" y="131.44" width="8.67" height="44.74" style="fill:#fff"></rect><rect x="386.32" y="131.44" width="8.67" height="44.74" style="fill:#fff"></rect><path d="M387.22,175.15h0c-.08,0-.15-.09-.15-.2V133.64c0-.11.07-.2.15-.2h0c.07,0,.14.09.14.2V175C387.36,175.06,387.29,175.15,387.22,175.15Z" style="opacity:0.1"></path><path d="M388,175.15h0c-.08,0-.14-.09-.14-.2V133.64c0-.11.06-.2.14-.2h0c.08,0,.14.09.14.2V175C388.12,175.06,388.06,175.15,388,175.15Z" style="opacity:0.1"></path><path d="M388.74,175.15h0c-.08,0-.14-.09-.14-.2V133.64c0-.11.06-.2.14-.2h0c.08,0,.15.09.15.2V175C388.89,175.06,388.82,175.15,388.74,175.15Z" style="opacity:0.1"></path><path d="M389.51,175.15h0c-.08,0-.15-.09-.15-.2V133.64c0-.11.07-.2.15-.2h0c.08,0,.14.09.14.2V175C389.65,175.06,389.59,175.15,389.51,175.15Z" style="opacity:0.1"></path><path d="M390.27,175.15h0c-.08,0-.14-.09-.14-.2V133.64c0-.11.06-.2.14-.2h0c.08,0,.14.09.14.2V175C390.41,175.06,390.35,175.15,390.27,175.15Z" style="opacity:0.1"></path><path d="M391,175.15h0c-.07,0-.14-.09-.14-.2V133.64c0-.11.07-.2.14-.2h0c.08,0,.15.09.15.2V175C391.18,175.06,391.11,175.15,391,175.15Z" style="opacity:0.1"></path><path d="M391.8,175.15h0c-.08,0-.14-.09-.14-.2V133.64c0-.11.06-.2.14-.2h0c.08,0,.14.09.14.2V175C391.94,175.06,391.88,175.15,391.8,175.15Z" style="opacity:0.1"></path><path d="M392.56,175.15h0c-.08,0-.14-.09-.14-.2V133.64c0-.11.06-.2.14-.2h0c.08,0,.15.09.15.2V175C392.71,175.06,392.64,175.15,392.56,175.15Z" style="opacity:0.1"></path><path d="M393.33,175.15h0c-.08,0-.15-.09-.15-.2V133.64c0-.11.07-.2.15-.2h0c.08,0,.14.09.14.2V175C393.47,175.06,393.41,175.15,393.33,175.15Z" style="opacity:0.1"></path><path d="M394.09,175.15h0c-.08,0-.14-.09-.14-.2V133.64c0-.11.06-.2.14-.2h0c.08,0,.14.09.14.2V175C394.23,175.06,394.17,175.15,394.09,175.15Z" style="opacity:0.1"></path><polygon points="394.99 131.44 394.99 132.97 386.32 132.63 386.32 131.44 394.99 131.44" style="opacity:0.1"></polygon><rect x="384.93" y="177.46" width="11.45" height="2.31" style="fill:#fff"></rect><path d="M397.33,132.11a1.72,1.72,0,0,1-1.76,1.8c-1.64,0-1.73-1.79-1.73-1.79h-6.38s-.08,1.79-1.72,1.79a1.72,1.72,0,0,1-1.76-1.8,2,2,0,0,1,2.23-2.05h8.88A2,2,0,0,1,397.33,132.11Z" style="fill:#fff"></path><path d="M387.47,132.12a1.12,1.12,0,1,0-2.11.55.51.51,0,0,0,.93-.1c.13-.52-.37-.79-.19-1.1s.66-.26.95-.05A1.46,1.46,0,0,1,387.47,132.12Z" style="opacity:0.1"></path><path d="M393.84,132.12a1.12,1.12,0,1,1,2.11.55.51.51,0,0,1-.93-.1c-.13-.52.36-.79.19-1.1s-.66-.26-.95-.05A1.38,1.38,0,0,0,393.84,132.12Z" style="opacity:0.1"></path><rect x="406.85" y="176.18" width="10.21" height="1.28" style="fill:#fff"></rect><rect x="406.85" y="176.18" width="10.21" height="1.28" style="opacity:0.1"></rect><rect x="407.62" y="131.44" width="8.67" height="44.74" style="fill:#fff"></rect><rect x="407.62" y="131.44" width="8.67" height="44.74" style="fill:#fff"></rect><path d="M408.52,175.15h0c-.08,0-.14-.09-.14-.2V133.64c0-.11.06-.2.14-.2h0c.08,0,.15.09.15.2V175C408.67,175.06,408.6,175.15,408.52,175.15Z" style="opacity:0.1"></path><path d="M409.29,175.15h0c-.08,0-.15-.09-.15-.2V133.64c0-.11.07-.2.15-.2h0c.08,0,.14.09.14.2V175C409.43,175.06,409.37,175.15,409.29,175.15Z" style="opacity:0.1"></path><path d="M410.05,175.15h0c-.08,0-.14-.09-.14-.2V133.64c0-.11.06-.2.14-.2h0c.08,0,.14.09.14.2V175C410.19,175.06,410.13,175.15,410.05,175.15Z" style="opacity:0.1"></path><path d="M410.81,175.15h0c-.07,0-.14-.09-.14-.2V133.64c0-.11.07-.2.14-.2h0c.08,0,.15.09.15.2V175C411,175.06,410.89,175.15,410.81,175.15Z" style="opacity:0.1"></path><path d="M411.58,175.15h0c-.08,0-.14-.09-.14-.2V133.64c0-.11.06-.2.14-.2h0c.08,0,.14.09.14.2V175C411.72,175.06,411.66,175.15,411.58,175.15Z" style="opacity:0.1"></path><path d="M412.34,175.15h0c-.08,0-.14-.09-.14-.2V133.64c0-.11.06-.2.14-.2h0c.08,0,.15.09.15.2V175C412.49,175.06,412.42,175.15,412.34,175.15Z" style="opacity:0.1"></path><path d="M413.11,175.15h0c-.08,0-.15-.09-.15-.2V133.64c0-.11.07-.2.15-.2h0c.08,0,.14.09.14.2V175C413.25,175.06,413.19,175.15,413.11,175.15Z" style="opacity:0.1"></path><path d="M413.87,175.15h0c-.08,0-.14-.09-.14-.2V133.64c0-.11.06-.2.14-.2h0c.08,0,.14.09.14.2V175C414,175.06,414,175.15,413.87,175.15Z" style="opacity:0.1"></path><path d="M414.63,175.15h0c-.08,0-.14-.09-.14-.2V133.64c0-.11.06-.2.14-.2h0c.08,0,.15.09.15.2V175C414.78,175.06,414.71,175.15,414.63,175.15Z" style="opacity:0.1"></path><path d="M415.4,175.15h0c-.08,0-.15-.09-.15-.2V133.64c0-.11.07-.2.15-.2h0c.08,0,.14.09.14.2V175C415.54,175.06,415.48,175.15,415.4,175.15Z" style="opacity:0.1"></path><polygon points="416.3 131.44 416.3 132.97 407.62 132.63 407.62 131.44 416.3 131.44" style="opacity:0.1"></polygon><rect x="406.24" y="177.46" width="11.45" height="2.31" style="fill:#fff"></rect><path d="M418.63,132.11a1.71,1.71,0,0,1-1.75,1.8c-1.64,0-1.73-1.79-1.73-1.79h-6.38s-.09,1.79-1.72,1.79a1.72,1.72,0,0,1-1.76-1.8,2,2,0,0,1,2.23-2.05h8.88A2,2,0,0,1,418.63,132.11Z" style="fill:#fff"></path><path d="M408.77,132.12a1.12,1.12,0,1,0-2.11.55.51.51,0,0,0,.94-.1c.12-.52-.37-.79-.19-1.1s.66-.26.94-.05A1.38,1.38,0,0,1,408.77,132.12Z" style="opacity:0.1"></path><path d="M415.15,132.12a1.12,1.12,0,1,1,2.11.55.51.51,0,0,1-.94-.1c-.12-.52.37-.79.19-1.1s-.65-.26-.94-.05A1.38,1.38,0,0,0,415.15,132.12Z" style="opacity:0.1"></path><rect x="338.86" y="179.76" width="82.28" height="1.9" style="fill:#fff"></rect><rect x="336.59" y="181.66" width="86.81" height="1.9" style="fill:#fff"></rect><rect x="334.32" y="183.55" width="91.35" height="1.9" style="fill:#fff"></rect><rect x="332.05" y="185.45" width="95.89" height="1.9" style="fill:#fff"></rect><rect x="329.78" y="187.34" width="100.43" height="1.9" style="fill:#fff"></rect><polygon points="424.77 124.46 335.23 124.46 380 96.32 424.77 124.46" style="fill:#fff"></polygon><polygon points="411.47 121.16 348.53 121.16 380 101.38 411.47 121.16" style="fill:#ebebeb;opacity:0.5"></polygon><polygon points="411.46 121.16 409.57 121.16 380 102.58 350.43 121.16 348.54 121.16 380 101.39 411.46 121.16" style="fill:#dbdbdb;opacity:0.5"></polygon><rect x="337.38" y="124.46" width="85.23" height="5.6" style="fill:#fff"></rect><polygon points="422.62 125.17 337.38 125.88 337.38 124.46 422.62 124.46 422.62 125.17" style="fill:#ebebeb;opacity:0.5"></polygon><rect x="93.17" y="231.08" width="68.99" height="216.98" style="fill:#ebebeb"></rect><rect x="93.17" y="231.07" width="69" height="216.99" style="fill:#ebebeb"></rect><path d="M100.32,442h0a1.14,1.14,0,0,1-1.14-1.14v-197a1.14,1.14,0,0,1,1.14-1.14h0a1.14,1.14,0,0,1,1.14,1.14v197A1.14,1.14,0,0,1,100.32,442Z" style="opacity:0.1"></path><path d="M106.4,442h0a1.14,1.14,0,0,1-1.14-1.14v-197a1.14,1.14,0,0,1,1.14-1.14h0a1.14,1.14,0,0,1,1.14,1.14v197A1.14,1.14,0,0,1,106.4,442Z" style="opacity:0.1"></path><path d="M112.47,442h0a1.14,1.14,0,0,1-1.14-1.14v-197a1.14,1.14,0,0,1,1.14-1.14h0a1.14,1.14,0,0,1,1.14,1.14v197A1.14,1.14,0,0,1,112.47,442Z" style="opacity:0.1"></path><path d="M118.55,442h0a1.14,1.14,0,0,1-1.14-1.14v-197a1.14,1.14,0,0,1,1.14-1.14h0a1.14,1.14,0,0,1,1.14,1.14v197A1.14,1.14,0,0,1,118.55,442Z" style="opacity:0.1"></path><path d="M124.63,442h0a1.14,1.14,0,0,1-1.14-1.14v-197a1.14,1.14,0,0,1,1.14-1.14h0a1.14,1.14,0,0,1,1.14,1.14v197A1.14,1.14,0,0,1,124.63,442Z" style="opacity:0.1"></path><path d="M130.7,442h0a1.14,1.14,0,0,1-1.13-1.14v-197a1.14,1.14,0,0,1,1.13-1.14h0a1.14,1.14,0,0,1,1.14,1.14v197A1.14,1.14,0,0,1,130.7,442Z" style="opacity:0.1"></path><path d="M136.78,442h0a1.14,1.14,0,0,1-1.14-1.14v-197a1.14,1.14,0,0,1,1.14-1.14h0a1.14,1.14,0,0,1,1.14,1.14v197A1.14,1.14,0,0,1,136.78,442Z" style="opacity:0.1"></path><path d="M142.86,442h0a1.14,1.14,0,0,1-1.14-1.14v-197a1.14,1.14,0,0,1,1.14-1.14h0a1.14,1.14,0,0,1,1.14,1.14v197A1.14,1.14,0,0,1,142.86,442Z" style="opacity:0.1"></path><path d="M148.94,442h0a1.14,1.14,0,0,1-1.14-1.14v-197a1.14,1.14,0,0,1,1.14-1.14h0a1.14,1.14,0,0,1,1.14,1.14v197A1.14,1.14,0,0,1,148.94,442Z" style="opacity:0.1"></path><path d="M155,442h0a1.14,1.14,0,0,1-1.14-1.14v-197a1.14,1.14,0,0,1,1.14-1.14h0a1.14,1.14,0,0,1,1.14,1.14v197A1.14,1.14,0,0,1,155,442Z" style="opacity:0.1"></path><polygon points="162.16 231.07 162.16 240.06 93.17 238.03 93.17 231.07 162.16 231.07" style="opacity:0.1"></polygon><path d="M180.77,232c0,7.23-5.19,13.53-14,13.53-13,0-13.75-13.46-13.75-13.46H102.3s-.71,13.46-13.74,13.46c-8.82,0-14-6.3-14-13.53,0-6.38,4.54-15.41,17.77-15.41H163C176.24,216.61,180.77,225.64,180.77,232Z" style="fill:#ebebeb"></path><path d="M102.3,232.08c-.47-6.41-6.5-8.77-10.58-8-5.88,1.16-9.26,7.88-6.19,12.11,2.35,3.24,6.68,2.12,7.42-.75,1-3.94-2.93-5.92-1.5-8.23s5.23-2,7.52-.39C101.43,228.57,102.3,232.08,102.3,232.08Z" style="opacity:0.1"></path><path d="M153,232.08c.47-6.41,6.5-8.77,10.58-8,5.89,1.16,9.27,7.88,6.19,12.11-2.34,3.24-6.67,2.12-7.41-.75-1-3.94,2.92-5.92,1.49-8.23s-5.23-2-7.52-.39C153.91,228.57,153,232.08,153,232.08Z" style="opacity:0.1"></path></g><g id="freepik--Books--inject-8"><rect x="546.87" y="436.69" width="133.61" height="11.38" transform="translate(1227.35 884.76) rotate(180)" style="fill:#a6a6a6"></rect><rect x="645.25" y="436.69" width="5.45" height="11.38" transform="translate(1295.94 884.76) rotate(180)" style="fill:#DD995F"></rect><rect x="654.29" y="436.69" width="5.45" height="11.38" transform="translate(1314.03 884.76) rotate(180)" style="fill:#DD995F"></rect><rect x="560.2" y="436.69" width="5.45" height="11.38" transform="translate(1125.85 884.76) rotate(180)" style="fill:#DD995F"></rect><rect x="569.24" y="436.69" width="5.45" height="11.38" transform="translate(1143.93 884.76) rotate(180)" style="fill:#DD995F"></rect><rect x="555.51" y="413.35" width="69.93" height="23.34" style="fill:#263238"></rect><rect x="625.44" y="413.35" width="59.98" height="23.34" style="fill:#37474f"></rect><rect x="555.51" y="415.77" width="67.04" height="18.5" style="fill:#fff"></rect><path d="M622.55,434.27c-.24,0-67,.21-67.26.21v-.21l0-18.5v-.25h.25l67.14.14c0,.09-.12,18.51-.1,18.61Zm0,0-.11-18.5c.7.29-67.1.16-66.93.25l.25-.25,0,18.5-.21-.22,67,.22Z" style="fill:#dbdbdb"></path><path d="M558,417.81q8.07-.13,16.15-.19l16.15-.07,16.15.06q8.07.06,16.15.2-8.07.15-16.15.2l-16.15.06L574.1,418Q566,418,558,417.81Z" style="fill:#dbdbdb"></path><path d="M558,420.22q8.07-.15,16.15-.2l16.15-.06,16.15.06q8.07,0,16.15.2-8.07.13-16.15.19l-16.15.06-16.15-.06Q566,420.37,558,420.22Z" style="fill:#dbdbdb"></path><path d="M558,422.62q8.07-.15,16.15-.2l16.15-.06,16.15.06q8.07,0,16.15.2-8.07.13-16.15.2l-16.15.06-16.15-.06Q566,422.76,558,422.62Z" style="fill:#dbdbdb"></path><path d="M558,425q8.07-.15,16.15-.2l16.15-.06,16.15.06q8.07,0,16.15.2-8.07.14-16.15.2l-16.15.06-16.15-.06Q566,425.16,558,425Z" style="fill:#dbdbdb"></path><path d="M558,427.42q8.07-.15,16.15-.2l16.15-.06,16.15.06q8.07,0,16.15.2-8.07.15-16.15.2l-16.15.06-16.15-.06Q566,427.56,558,427.42Z" style="fill:#dbdbdb"></path><path d="M558,429.82q8.07-.13,16.15-.2l16.15-.06,16.15.06q8.07.06,16.15.2-8.07.15-16.15.2l-16.15.06L574.1,430Q566,430,558,429.82Z" style="fill:#dbdbdb"></path><path d="M558,432.22q8.07-.14,16.15-.2l16.15-.06,16.15.06q8.07.06,16.15.2-8.07.15-16.15.2l-16.15.06-16.15-.06Q566,432.38,558,432.22Z" style="fill:#dbdbdb"></path><path d="M566.43,421.75v16.77l6-5,6,5V421.75a1.52,1.52,0,0,1,1.53-1.53H568A1.53,1.53,0,0,0,566.43,421.75Z" style="fill:#DD995F"></path><rect x="551.15" y="380.53" width="123.05" height="15.91" style="fill:#a6a6a6"></rect><rect x="562.72" y="383.78" width="47.33" height="9.55" style="fill:#dbdbdb"></rect><rect x="621.47" y="383.78" width="44.43" height="1.48" style="fill:#dbdbdb"></rect><rect x="621.47" y="387.74" width="44.43" height="1.48" style="fill:#dbdbdb"></rect><rect x="621.47" y="391.71" width="44.43" height="1.48" style="fill:#dbdbdb"></rect><rect x="620.15" y="396.36" width="81.82" height="16.98" transform="translate(1322.13 809.71) rotate(180)" style="fill:#DD995F"></rect><rect x="565.49" y="396.36" width="54.67" height="16.98" transform="translate(1185.64 809.71) rotate(180)" style="fill:#DD995F"></rect><rect x="565.49" y="396.36" width="54.67" height="16.98" transform="translate(1185.64 809.71) rotate(180)" style="opacity:0.1"></rect><rect x="621.95" y="398.13" width="80.02" height="13.46" transform="translate(1323.92 809.71) rotate(180)" style="fill:#fff"></rect><path d="M622,398.13c.23.22,80.48-.66,80.25,0l0,13.45v.26H702c-19.94,0-60.09-.11-80-.17h-.07v-.08l.07-13.45Zm0,0,.07,13.45c-.44-.19,40-.11,39.94-.17l40-.07-.25.24,0-13.45c1.39.62-80.1-.2-79.8,0Z" style="fill:#dbdbdb"></path><path d="M696.79,408.82q-9.36.14-18.71.19l-18.71.07L640.66,409q-9.36-.06-18.71-.2,9.34-.15,18.71-.2l18.71-.06,18.71.06Q687.44,408.67,696.79,408.82Z" style="fill:#dbdbdb"></path><path d="M696.79,406.18q-9.36.13-18.71.19l-18.71.06-18.71-.05q-9.36-.06-18.71-.2,9.34-.15,18.71-.2l18.71-.06,18.71.06Q687.44,406,696.79,406.18Z" style="fill:#dbdbdb"></path><path d="M696.79,403.54q-9.36.13-18.71.19l-18.71.06-18.71-.05q-9.36-.06-18.71-.2,9.34-.15,18.71-.2l18.71-.06,18.71.06Q687.44,403.39,696.79,403.54Z" style="fill:#dbdbdb"></path><path d="M696.79,400.9q-9.36.14-18.71.19l-18.71.06-18.71-.06q-9.36,0-18.71-.19,9.34-.15,18.71-.2l18.71-.06,18.71.06Q687.44,400.75,696.79,400.9Z" style="fill:#dbdbdb"></path><path d="M646.14,405.08v16.77l-6-5-6,5V405.08a1.52,1.52,0,0,0-1.53-1.53h12A1.53,1.53,0,0,1,646.14,405.08Z" style="fill:#263238"></path><path d="M581.33,301.69c0,7.09-8.44,13.63-18.28,13.63s-18.27-6.34-18.27-13.63Z" style="fill:#DD995F"></path><path d="M581.33,301.69c0,7.09-8.44,13.63-18.28,13.63s-18.27-6.34-18.27-13.63Z" style="opacity:0.1"></path><path d="M577.85,300c-4.39-10.65-11-27.51-15.2-38.36h.7c-1.86,4.8-5.62,14.43-7.5,19.22s-5.74,14.38-7.69,19.14c3.12-8.65,7.53-20.41,10.81-29,.1-.28,4.09-10.67,4-10.55l.35.91c4.16,10.93,10.6,27.75,14.5,38.63Z" style="fill:#dbdbdb"></path><rect x="543.73" y="299.21" width="38.63" height="2.48" style="fill:#DD995F"></rect><path d="M692.11,324c0,7.09-8.44,13.64-18.28,13.64S655.56,331.3,655.56,324Z" style="fill:#DD995F"></path><path d="M692.11,324c0,7.09-8.44,13.64-18.28,13.64S655.56,331.3,655.56,324Z" style="opacity:0.1"></path><path d="M688.63,322.34c-4.38-10.64-11-27.5-15.19-38.35h.7c-1.86,4.79-5.63,14.42-7.51,19.21s-5.74,14.39-7.69,19.14c3.13-8.64,7.53-20.41,10.82-29,.09-.28,4.08-10.66,4-10.55l.35.92c4.16,10.92,10.59,27.74,14.49,38.62Z" style="fill:#dbdbdb"></path><rect x="654.52" y="321.53" width="38.63" height="2.48" style="fill:#DD995F"></rect><path d="M673.09,284.55c-3.05-.36-4.75-2.35-8.09-4.15-4.85-2.61-23.78-7-32.16-8.06-3.32-.41-10.72,1.14-15.62.16s-11.12-5.27-14.35-6.17c-8.12-2.29-27.29-5.5-32.79-5-3.76.38-6.09,1.56-9.05.71-4.81-1.34-4-8.35,2.2-7.11s7.73,2.81,15.9,4.3c3.53.65,24.94,2.42,30.88,3.61a34.35,34.35,0,0,1,8.62,2.62,34.36,34.36,0,0,1,9,.9c5.95,1.19,26.37,7.81,29.89,8.58,8.1,1.77,10.15.91,16.33,2.15S678.05,285.16,673.09,284.55Z" style="fill:#DD995F"></path><path d="M673.09,284.55c-3.05-.36-4.75-2.35-8.09-4.15-4.85-2.61-23.78-7-32.16-8.06-3.32-.41-10.72,1.14-15.62.16s-11.12-5.27-14.35-6.17c-8.12-2.29-27.29-5.5-32.79-5-3.76.38-6.09,1.56-9.05.71-4.81-1.34-4-8.35,2.2-7.11s7.73,2.81,15.9,4.3c3.53.65,24.94,2.42,30.88,3.61a34.35,34.35,0,0,1,8.62,2.62,34.36,34.36,0,0,1,9,.9c5.95,1.19,26.37,7.81,29.89,8.58,8.1,1.77,10.15.91,16.33,2.15S678.05,285.16,673.09,284.55Z" style="opacity:0.1"></path><rect x="578.93" y="367.13" width="77.99" height="13.4" style="fill:#DD995F"></rect><rect x="578.93" y="367.13" width="77.99" height="13.4" style="opacity:0.1"></rect><rect x="582.97" y="363.83" width="69.9" height="3.3" style="fill:#DD995F"></rect><rect x="582.97" y="363.83" width="69.9" height="3.3" style="opacity:0.30000000000000004"></rect><path d="M622.73,363.84h-9.61s-2-8.38-1.55-22,4.52-72.5,4.52-72.5h3.68s4,58.86,4.52,72.5S622.73,363.84,622.73,363.84Z" style="fill:#DD995F"></path><path d="M622.73,363.84h-9.61s-2-8.38-1.55-22,4.52-72.5,4.52-72.5h3.68s4,58.86,4.52,72.5S622.73,363.84,622.73,363.84Z" style="opacity:0.1"></path><path d="M620.93,260.38c0,4.95-1.23,6.31-1.23,6.31h-3.54s-1.24-1.36-1.24-6.31,2.33-20.57,2.33-20.57h1.34S620.93,255.43,620.93,260.38Z" style="fill:#DD995F"></path><path d="M620.93,260.38c0,4.95-1.23,6.31-1.23,6.31h-3.54s-1.24-1.36-1.24-6.31,2.33-20.57,2.33-20.57h1.34S620.93,255.43,620.93,260.38Z" style="opacity:0.1"></path><path d="M622.56,268.69a4.63,4.63,0,1,1-4.63-4.63A4.64,4.64,0,0,1,622.56,268.69Z" style="fill:#37474f"></path><path d="M621.62,239.81a3.7,3.7,0,1,1-3.69-3.7A3.69,3.69,0,0,1,621.62,239.81Z" style="fill:#37474f"></path></g><g id="freepik--Table--inject-8"><path d="M48,448.07c209.48-.61,444.46-.62,653.94,0-209.48.62-444.46.61-653.94,0Z" style="fill:#263238"></path></g><g id="freepik--Device--inject-8"><rect x="340.92" y="442.07" width="125.39" height="6" style="fill:#dbdbdb"></rect><polygon points="466.31 442.07 466.31 448.06 393.28 448.06 397.86 442.07 466.31 442.07" style="fill:#c7c7c7"></polygon><polygon points="416.75 448.06 525.44 448.06 542.39 365.39 433.71 365.39 416.75 448.06" style="fill:#c7c7c7"></polygon><polygon points="422.23 448.06 530.91 448.06 547.87 365.39 439.19 365.39 422.23 448.06" style="fill:#dbdbdb"></polygon><path d="M491.49,406.73c-.55,3.85-3.29,7-6.1,7s-4.64-3.12-4.08-7,3.29-7,6.1-7S492.05,402.88,491.49,406.73Z" style="fill:#fff"></path></g><g id="freepik--Gavel--inject-8"><rect x="67.3" y="434.58" width="91.49" height="13.49" transform="translate(226.09 882.65) rotate(180)" style="fill:#DD995F"></rect><rect x="67.3" y="434.58" width="91.49" height="13.49" transform="translate(226.09 882.65) rotate(180)" style="opacity:0.1"></rect><rect x="72.41" y="430.73" width="81.28" height="3.85" transform="translate(226.09 865.31) rotate(180)" style="fill:#DD995F"></rect><polygon points="181.84 448.07 130.45 403.93 135.48 397.82 188.64 439.81 181.84 448.07" style="fill:#DD995F"></polygon><polygon points="181.84 448.07 130.45 403.93 135.48 397.82 188.64 439.81 181.84 448.07" style="opacity:0.1"></polygon><rect x="99.15" y="368.04" width="38.17" height="41.4" transform="translate(274.16 13.53) rotate(39.48)" style="fill:#DD995F"></rect><rect x="99.15" y="368.04" width="38.17" height="41.4" transform="translate(274.16 13.53) rotate(39.48)" style="opacity:0.1"></rect><rect x="76.21" y="408.06" width="44.61" height="9.24" transform="translate(284.88 31.53) rotate(39.48)" style="fill:#DD995F"></rect><rect x="76.21" y="408.06" width="44.61" height="9.24" transform="translate(284.88 31.53) rotate(39.48)" style="opacity:0.1"></rect><rect x="86.61" y="404.31" width="34.72" height="3.47" transform="translate(281.92 26.55) rotate(39.48)" style="fill:#DD995F"></rect><rect x="86.61" y="404.31" width="34.72" height="3.47" transform="translate(281.92 26.55) rotate(39.48)" style="opacity:0.30000000000000004"></rect><polygon points="84.23 394.93 89.47 396.35 116.27 418.43 118.66 423.29 84.23 394.93" style="fill:#DD995F"></polygon><rect x="115.65" y="360.18" width="44.61" height="9.24" transform="translate(12.47 734.07) rotate(-140.52)" style="fill:#DD995F"></rect><rect x="115.65" y="360.18" width="44.61" height="9.24" transform="translate(12.47 734.07) rotate(-140.52)" style="opacity:0.1"></rect><rect x="115.14" y="369.69" width="34.72" height="3.47" transform="translate(-1.42 742.34) rotate(-140.52)" style="fill:#DD995F"></rect><rect x="115.14" y="369.69" width="34.72" height="3.47" transform="translate(-1.42 742.34) rotate(-140.52)" style="opacity:0.30000000000000004"></rect><polygon points="152.23 382.54 147 381.12 120.2 359.05 117.8 354.18 152.23 382.54" style="fill:#DD995F"></polygon><rect x="131.68" y="397.84" width="11.26" height="13.22" transform="matrix(0.77, 0.64, -0.64, 0.77, 288.51, 4.99)" style="fill:#DD995F"></rect></g></svg>
