<svg width="119" height="120" viewBox="0 0 119 120" fill="none" xmlns="http://www.w3.org/2000/svg">
<path d="M11.7292 52.6483C11.5817 53.5312 12.0404 54.113 12.6409 54.2174C13.3273 54.3367 13.6385 53.8553 13.8806 53.3739C14.1124 52.9141 14.2811 52.4544 14.6546 52.5195C14.9659 52.5737 15.0752 52.826 15.0131 53.1298C14.9522 53.462 14.7212 53.6343 14.4672 53.6071L14.3244 54.4629C15.0206 54.532 15.5099 54.056 15.6429 53.2613C15.7765 52.4612 15.4563 51.8238 14.7686 51.7045C14.0628 51.5797 13.7604 52.0638 13.5232 52.548C13.2964 53.0104 13.1292 53.4729 12.7264 53.4037C12.4534 53.3562 12.2985 53.1067 12.3601 52.7392C12.4199 52.3785 12.6563 52.2076 12.9659 52.2388L13.1053 51.4048C13.0417 51.3953 12.9799 51.3898 12.9197 51.3898C12.2945 51.3898 11.852 51.9133 11.7292 52.6483Z" fill="url(#paint0_linear_12_552)"/>
<path d="M11.042 60.6062C11.0241 61.7224 11.8295 62.6323 12.9931 62.6513C14.1507 62.6703 14.9846 61.7929 15.0026 60.6713C15.0207 59.5607 14.2153 58.6398 13.0576 58.6208C13.0451 58.6208 13.0328 58.6208 13.0206 58.6208C11.8765 58.6208 11.0595 59.5078 11.042 60.6062ZM13.0058 61.8403C12.2194 61.8268 11.7231 61.3277 11.7343 60.6171C11.7459 59.9011 12.2579 59.4196 13.0443 59.4318C13.8312 59.4454 14.3163 59.9444 14.3047 60.6605C14.2938 61.3616 13.8058 61.8403 13.0367 61.8403C13.0265 61.8403 13.0162 61.8403 13.0058 61.8403Z" fill="url(#paint1_linear_12_552)"/>
<path d="M11.4583 67.288L11.7517 69.3534L12.3603 69.2625L12.1781 67.9796L15.3977 67.5063L15.2865 66.7238L11.4583 67.288Z" fill="url(#paint2_linear_12_552)"/>
<path d="M13.0188 74.9108L13.2907 75.8289L17.4026 76.0744L17.1639 75.2702L13.9147 75.1427L16.5509 73.2021L16.311 72.3925L13.0188 74.9108Z" fill="url(#paint3_linear_12_552)"/>
<path d="M15.3772 81.4027L15.7017 82.1188L19.2113 80.4724L18.8864 79.7563L15.3772 81.4027Z" fill="url(#paint4_linear_12_552)"/>
<path d="M17.9041 86.3893L18.3237 87.0524L20.554 85.5918L19.2731 88.5537L19.6924 89.2182L22.9474 87.0863L22.528 86.4232L20.2928 87.8864L21.5782 84.9206L21.1588 84.2574L17.9041 86.3893Z" fill="url(#paint5_linear_12_552)"/>
<path d="M23.9287 91.6362C23.0732 92.4309 23.0463 93.6311 23.8037 94.4774C24.4983 95.2517 25.5048 95.287 26.1907 94.8639L26.6899 94.4014L25.2789 92.8256L24.8409 93.2324L25.7367 94.2319C25.2528 94.5208 24.7416 94.4692 24.3384 94.019C23.8532 93.4779 23.8848 92.7767 24.466 92.237C25.0356 91.7095 25.7246 91.7339 26.1911 92.2546C26.4675 92.5625 26.5571 92.9219 26.4349 93.2799L27.0361 93.9498C27.441 93.2311 27.3019 92.4133 26.7195 91.7637C26.3185 91.3162 25.7973 91.0843 25.2681 91.0843C24.8019 91.0843 24.3294 91.2647 23.9287 91.6362Z" fill="url(#paint6_linear_12_552)"/>
<path d="M32.48 102.118L33.1716 102.557L33.778 102.06L35.0826 102.889L34.9093 103.662L35.6036 104.105L36.4765 100.014L35.7116 99.5276L32.48 102.118ZM34.2843 101.638L35.6156 100.543L35.2332 102.241L34.2843 101.638Z" fill="url(#paint7_linear_12_552)"/>
<path d="M40.2386 104.324C39.7975 105.413 40.2719 106.509 41.3007 106.939C42.0949 107.271 42.9131 107.115 43.4582 106.464L42.6333 106.12C42.3201 106.403 41.9443 106.447 41.5592 106.285C40.9342 106.024 40.6783 105.369 40.9755 104.634C41.2754 103.893 41.9083 103.615 42.5333 103.877C42.9171 104.038 43.1557 104.338 43.1837 104.758L44.0085 105.104C44.0685 104.258 43.5981 103.554 42.8039 103.222C42.5413 103.112 42.2748 103.059 42.0163 103.059C41.258 103.059 40.5664 103.512 40.2386 104.324Z" fill="url(#paint8_linear_12_552)"/>
<path d="M47.7372 107.076C47.4866 108.226 48.137 109.223 49.2244 109.468C50.0626 109.657 50.8435 109.36 51.2699 108.623L50.3997 108.428C50.1386 108.762 49.7747 108.87 49.3696 108.778C48.71 108.63 48.3475 108.028 48.5154 107.252C48.686 106.47 49.263 106.086 49.924 106.235C50.3291 106.327 50.6143 106.581 50.7116 106.99L51.5831 107.187C51.5005 106.342 50.9181 105.732 50.0799 105.543C49.9227 105.507 49.7667 105.491 49.6148 105.491C48.718 105.491 47.9517 106.091 47.7372 107.076Z" fill="url(#paint9_linear_12_552)"/>
<path d="M55.6543 110.443L57.8944 110.587L57.9331 109.946L56.4685 109.852L56.5325 108.81L57.8318 108.893L57.8704 108.269L56.5711 108.187L56.6311 107.202L58.0957 107.294L58.1356 106.653L55.8968 106.51L55.6543 110.443Z" fill="url(#paint10_linear_12_552)"/>
<path d="M63.5249 106.468C62.7306 106.535 62.2016 107.008 62.2589 107.716C62.3682 109.137 64.3138 108.461 64.3817 109.309C64.4044 109.59 64.2045 109.804 63.8407 109.834C63.4822 109.864 63.261 109.673 63.213 109.361L62.3855 109.43C62.4561 110.171 63.1091 110.546 63.9087 110.478C64.7869 110.407 65.228 109.81 65.1773 109.191C65.0667 107.81 63.1264 108.413 63.0625 107.626C63.0371 107.306 63.2517 107.136 63.5555 107.121C63.8873 107.099 64.1072 107.285 64.1445 107.541L64.9947 107.471C64.8961 106.821 64.4004 106.46 63.7034 106.46C63.6461 106.46 63.5862 106.463 63.5249 106.468Z" fill="url(#paint11_linear_12_552)"/>
<path d="M70.2172 105.387C69.4416 105.576 68.9885 106.125 69.1511 106.817C69.4709 108.206 71.2939 107.236 71.4872 108.063C71.5525 108.338 71.3872 108.581 71.0314 108.667C70.6809 108.752 70.4344 108.597 70.3398 108.295L69.5322 108.492C69.7121 109.213 70.4131 109.483 71.1953 109.293C72.0522 109.086 72.3987 108.428 72.2574 107.824C71.9416 106.475 70.1119 107.372 69.932 106.604C69.86 106.291 70.0466 106.09 70.3451 106.029C70.6689 105.956 70.9155 106.105 70.9901 106.353L71.8203 106.151C71.6537 105.613 71.2273 105.329 70.6716 105.329C70.529 105.329 70.3758 105.348 70.2172 105.387Z" fill="url(#paint12_linear_12_552)"/>
<path d="M79.7454 101.967L80.0412 102.529L80.9501 102.032L82.4812 104.94L83.1649 104.567L81.6324 101.659L82.5412 101.164L82.2454 100.603L79.7454 101.967Z" fill="url(#paint13_linear_12_552)"/>
<path d="M86.9988 97.2845C86.1313 97.9585 85.9207 99.1723 86.623 100.108C87.3293 101.049 88.5353 101.16 89.4029 100.486C90.2731 99.8097 90.4756 98.6027 89.7693 97.6629C89.3642 97.1218 88.7952 96.8533 88.2182 96.8533C87.7957 96.8533 87.3693 96.997 86.9988 97.2845ZM87.2574 99.6157C86.7803 98.9797 86.8629 98.284 87.4226 97.8487C87.977 97.4188 88.6593 97.5191 89.1363 98.1552C89.6134 98.7912 89.5361 99.4964 88.9818 99.9277C88.7579 100.101 88.5127 100.188 88.2675 100.188C87.9037 100.188 87.5425 99.9968 87.2574 99.6157Z" fill="url(#paint14_linear_12_552)"/>
<path d="M95.6504 88.5225L97.8039 90.2014C98.0464 90.3899 98.1117 90.6259 97.9372 90.8592C97.7586 91.0965 97.5094 91.0938 97.2469 90.8958L96.7751 91.5223C97.3948 92.0051 98.0518 91.864 98.4929 91.2782C98.9273 90.7018 98.8847 90.0441 98.2797 89.5708L96.1248 87.8919L95.6504 88.5225Z" fill="url(#paint15_linear_12_552)"/>
<path d="M99.6308 82.1377L101.731 83.3054C102.197 83.5644 102.303 83.9563 102.064 84.4025C101.828 84.8419 101.447 84.9639 100.981 84.7049L98.8793 83.5386L98.5088 84.2316L100.604 85.3952C101.498 85.8929 102.271 85.5118 102.677 84.7551C103.082 83.9984 102.996 83.102 102.1 82.6042L100.005 81.4407L99.6308 82.1377Z" fill="url(#paint16_linear_12_552)"/>
<path d="M102.06 76.3239C101.794 77.0888 102 77.7737 102.658 78.0123C103.343 78.2632 103.725 77.8198 104.044 77.3777C104.339 76.9681 104.58 76.5599 104.959 76.6969C105.218 76.7918 105.329 77.0644 105.206 77.4143C105.085 77.7601 104.824 77.8862 104.524 77.8021L104.246 78.5982C104.939 78.8382 105.544 78.3866 105.811 77.6164C106.107 76.7715 105.754 76.1178 105.18 75.9103C104.511 75.6676 104.122 76.107 103.798 76.5464C103.499 76.9518 103.258 77.356 102.908 77.2285C102.61 77.1213 102.547 76.8528 102.658 76.564C102.776 76.248 103.032 76.1192 103.277 76.1897L103.563 75.3719C103.447 75.3394 103.335 75.3245 103.228 75.3245C102.705 75.3245 102.28 75.6947 102.06 76.3239Z" fill="url(#paint17_linear_12_552)"/>
<path d="M103.617 71.1516L104.231 71.2723L104.427 70.243L107.609 70.8709L107.757 70.0952L104.575 69.4673L104.771 68.438L104.156 68.3173L103.617 71.1516Z" fill="url(#paint18_linear_12_552)"/>
<path d="M104.595 64.2529L108.454 64.4943L108.502 63.7064L104.641 63.465L104.595 64.2529Z" fill="url(#paint19_linear_12_552)"/>
<path d="M107.136 56.2557C107.527 56.4116 107.733 56.7358 107.766 57.1562C107.818 57.8424 107.357 58.3713 106.579 58.4323C105.794 58.4933 105.265 58.0431 105.213 57.3569C105.181 56.9351 105.338 56.5839 105.694 56.3696L105.625 55.4637C104.856 55.7905 104.451 56.535 104.516 57.4057C104.603 58.5367 105.485 59.3328 106.64 59.2419C107.794 59.1511 108.542 58.2275 108.455 57.0965C108.39 56.2259 107.882 55.5532 107.067 55.3511L107.136 56.2557Z" fill="url(#paint20_linear_12_552)"/>
<path d="M106.366 48.4809L106.706 49.9347L105.709 50.1761L105.406 48.8878L104.809 49.0329L105.111 50.3212L104.167 50.5504L103.827 49.0966L103.213 49.2458L103.734 51.4672L107.5 50.5531L106.98 48.3331L106.366 48.4809Z" fill="url(#paint21_linear_12_552)"/>
<path d="M15.5127 35.7047C15.0649 36.5387 15.0325 37.4351 15.3478 38.1593L14.5518 37.7172L13.6687 39.3609L20.0622 42.9167L20.9453 41.273L17.4138 39.308C16.3866 38.737 16.1418 37.8542 16.6213 36.9618C17.0879 36.0926 17.9508 35.8254 18.9779 36.3963L22.5094 38.36L23.3922 36.7164L19.6418 34.6306C19.0349 34.2929 18.4539 34.1343 17.919 34.1343C16.898 34.1356 16.0466 34.7093 15.5127 35.7047Z" fill="url(#paint22_linear_12_552)"/>
<path d="M23.9421 24.3865C23.1707 25.1909 22.9403 26.1785 23.1083 26.9808L20.5948 24.4847L19.3086 25.8257L26.2745 32.7444L27.5604 31.403L26.8171 30.6646C27.581 30.7876 28.5275 30.5678 29.327 29.7346C30.6316 28.3741 30.569 26.2356 28.9401 24.618C28.0975 23.7812 27.1383 23.3843 26.228 23.3843C25.3785 23.3843 24.5719 23.7298 23.9421 24.3865ZM24.9532 28.8135C23.9649 27.8318 24.071 26.6093 24.7601 25.8908C25.4582 25.1627 26.6379 25.0062 27.6263 25.9879C28.615 26.9697 28.5271 28.2109 27.8288 28.9386C27.483 29.2994 27.0091 29.5136 26.4976 29.5136C25.99 29.5136 25.4456 29.3025 24.9532 28.8135Z" fill="url(#paint23_linear_12_552)"/>
<path d="M35.8262 15.5218L37.8371 19.0555C38.4234 20.0867 38.1929 20.9648 37.328 21.4747C36.4858 21.9715 35.6116 21.7441 35.0239 20.713L33.013 17.179L31.4192 18.1184L33.562 21.8839C34.5642 23.645 36.1767 23.9943 37.6465 23.1286C38.4314 22.6658 38.9285 21.9088 39.0165 21.1295L39.4776 21.9406L41.0834 20.9944L37.4306 14.5757L35.8262 15.5218Z" fill="url(#paint24_linear_12_552)"/>
<path d="M47.6987 10.7877C46.7938 11.0246 46.1275 11.614 45.8237 12.3437L45.5971 11.4491L43.8127 11.9164L45.6318 19.0992L47.4148 18.6317L46.41 14.6642C46.1182 13.5104 46.5846 12.7245 47.5534 12.4708C48.4969 12.2235 49.2778 12.6823 49.5697 13.8361L50.5745 17.8034L52.3575 17.3358L51.2914 13.1223C50.8783 11.4911 49.8269 10.6728 48.5515 10.6728C48.277 10.6729 47.9905 10.7112 47.6987 10.7877Z" fill="url(#paint25_linear_12_552)"/>
<path d="M62.5426 10.4909C62.0562 9.78478 61.1447 9.31082 60.1852 9.29115C58.3169 9.25264 56.815 10.7078 56.7684 13.0234C56.7231 15.3386 58.165 16.9079 60.02 16.9462C61.1634 16.9699 61.9896 16.4511 62.4373 15.7776L62.416 16.8749L64.283 16.9134L64.4789 7.00957L62.6119 6.97119L62.5426 10.4909ZM60.525 15.3096C59.5389 15.2895 58.622 14.4673 58.65 13.0621C58.6767 11.6565 59.6255 10.9264 60.6116 10.9469C61.6244 10.9675 62.5293 11.7629 62.5026 13.168C62.4747 14.5543 61.5631 15.3101 60.5663 15.3101C60.553 15.3101 60.5397 15.3095 60.525 15.3096Z" fill="url(#paint26_linear_12_552)"/>
<path d="M69.2163 17.8571L71.006 18.2993L73.3048 8.67518L71.5151 8.23267L69.2163 17.8571Z" fill="url(#paint27_linear_12_552)"/>
<path d="M86.3526 14.7107C86.0368 15.2355 86.1927 15.8981 86.7537 16.2481C87.3027 16.5907 87.9651 16.4387 88.2822 15.9138C88.5981 15.3887 88.4301 14.7191 87.8811 14.3764C87.6772 14.2497 87.4627 14.1898 87.2561 14.1898C86.8923 14.1899 86.5538 14.3758 86.3526 14.7107ZM81.6951 22.8272L83.2649 23.8066L87.0735 17.484L85.5037 16.5047L81.6951 22.8272Z" fill="url(#paint28_linear_12_552)"/>
<path d="M87.4106 26.718L88.7393 28.0163L91.5271 25.0614C92.3387 24.2021 93.2409 24.193 93.9618 24.8977C94.6641 25.5838 94.6921 26.5019 93.8805 27.3611L91.0927 30.316L92.42 31.614L95.3824 28.4759C96.7763 26.9985 96.6684 25.3342 95.445 24.138C94.7707 23.4797 93.9285 23.2131 93.1582 23.3328L93.7872 22.6668L92.4586 21.3686L87.4106 26.718Z" fill="url(#paint29_linear_12_552)"/>
<path d="M98.2889 33.1877C96.3299 34.3933 95.8462 36.475 96.9349 38.3085C97.8744 39.8884 99.3856 40.4132 100.918 39.9386L99.8907 38.2095C99.2124 38.3614 98.674 38.1295 98.2796 37.465C97.7478 36.5713 98.0464 35.5745 99.2617 34.8259C100.477 34.0773 101.495 34.2644 102.027 35.1568C102.421 35.8213 102.336 36.4533 101.916 36.9618L102.945 38.6923C104.135 37.4894 104.312 35.9244 103.373 34.3445C102.68 33.1782 101.604 32.54 100.408 32.54C99.7241 32.54 99.0005 32.7489 98.2889 33.1877Z" fill="url(#paint30_linear_12_552)"/>
<path d="M36.438 36.3231V77.4198L59.8255 93.9336L83.2116 77.4198V36.3231H36.438ZM38.373 76.3904V38.2516H81.278V76.3904L59.8255 91.5386L38.373 76.3904Z" fill="url(#paint31_linear_12_552)"/>
<path d="M47.8132 47.4462C45.164 47.4462 43.0064 49.6418 43.0064 52.3378C43.0064 54.7965 44.7988 56.8307 47.1229 57.1738L41.1914 69.9812H53.4808L47.5707 57.2172C47.652 57.2213 47.7319 57.2294 47.8132 57.2294C50.4638 57.2294 52.62 55.0352 52.62 52.3378H50.6477C50.6477 53.9285 49.3764 55.2223 47.8132 55.2223C46.2514 55.2223 44.9801 53.9285 44.9801 52.3378C44.9801 50.7484 46.2514 49.4546 47.8132 49.4546H58.8393V84.351H60.8116V49.4546H71.8364C73.3995 49.4546 74.6708 50.7484 74.6708 52.3378C74.6708 53.9285 73.3995 55.2223 71.8364 55.2223C70.2745 55.2223 69.0032 53.9285 69.0032 52.3378H67.0296C67.0296 55.0352 69.1858 57.2294 71.8364 57.2294C71.919 57.2294 71.9989 57.2213 72.0802 57.2172L66.1701 69.9812H78.4595L72.528 57.1738C74.8507 56.8307 76.6431 54.7965 76.6431 52.3378C76.6431 49.6418 74.4869 47.4462 71.8364 47.4462H47.8132ZM72.3148 61.4226L75.3478 67.9741H69.2804L72.3148 61.4226ZM47.3361 61.4226L50.3692 67.9741H44.3031L47.3361 61.4226Z" fill="url(#paint32_linear_12_552)"/>
<path d="M54.155 55.179V77.1648L56.1286 78.1683V55.179H54.155Z" fill="url(#paint33_linear_12_552)"/>
<path d="M63.5222 55.179V78.1683L65.4958 77.1648V55.179H63.5222Z" fill="url(#paint34_linear_12_552)"/>
<path d="M52.4973 45.4377H67.1535V43.4293H52.4973V45.4377Z" fill="url(#paint35_linear_12_552)"/>
<path d="M0.866211 60.0001C0.866211 93.0846 27.315 120 59.8256 120C92.3362 120 118.785 93.0846 118.785 60.0001C118.785 26.9162 92.3362 0 59.8256 0C27.315 0 0.866211 26.9162 0.866211 60.0001ZM2.83943 60.0001C2.83943 28.0231 28.4031 2.00792 59.8256 2.00792C91.2475 2.00792 116.811 28.0231 116.811 60.0001C116.811 91.9767 91.2475 117.992 59.8256 117.992C28.4031 117.992 2.83943 91.9767 2.83943 60.0001Z" fill="url(#paint36_linear_12_552)"/>
<path d="M11.7292 52.6483C11.5817 53.5312 12.0404 54.113 12.6409 54.2174C13.3273 54.3367 13.6385 53.8553 13.8806 53.3739C14.1124 52.9141 14.2811 52.4544 14.6546 52.5195C14.9659 52.5737 15.0752 52.826 15.0131 53.1298C14.9522 53.462 14.7212 53.6343 14.4672 53.6071L14.3244 54.4629C15.0206 54.532 15.5099 54.056 15.6429 53.2613C15.7765 52.4612 15.4563 51.8238 14.7686 51.7045C14.0628 51.5797 13.7604 52.0638 13.5232 52.548C13.2964 53.0104 13.1292 53.4729 12.7264 53.4037C12.4534 53.3562 12.2985 53.1067 12.3601 52.7392C12.4199 52.3785 12.6563 52.2076 12.9659 52.2388L13.1053 51.4048C13.0417 51.3953 12.9799 51.3898 12.9197 51.3898C12.2945 51.3898 11.852 51.9133 11.7292 52.6483Z" fill="url(#paint37_linear_12_552)"/>
<path d="M11.042 60.6062C11.0241 61.7224 11.8295 62.6323 12.9931 62.6513C14.1507 62.6703 14.9846 61.7929 15.0026 60.6713C15.0207 59.5607 14.2153 58.6398 13.0576 58.6208C13.0451 58.6208 13.0328 58.6208 13.0206 58.6208C11.8765 58.6208 11.0595 59.5078 11.042 60.6062ZM13.0058 61.8403C12.2194 61.8268 11.7231 61.3277 11.7343 60.6171C11.7459 59.9011 12.2579 59.4196 13.0443 59.4318C13.8312 59.4454 14.3163 59.9444 14.3047 60.6605C14.2938 61.3616 13.8058 61.8403 13.0367 61.8403C13.0265 61.8403 13.0162 61.8403 13.0058 61.8403Z" fill="url(#paint38_linear_12_552)"/>
<path d="M11.4583 67.288L11.7517 69.3534L12.3603 69.2625L12.1781 67.9796L15.3977 67.5063L15.2865 66.7238L11.4583 67.288Z" fill="url(#paint39_linear_12_552)"/>
<path d="M13.0188 74.9108L13.2907 75.8289L17.4026 76.0744L17.1639 75.2702L13.9147 75.1427L16.5509 73.2021L16.311 72.3925L13.0188 74.9108Z" fill="url(#paint40_linear_12_552)"/>
<path d="M15.3772 81.4027L15.7017 82.1188L19.2113 80.4724L18.8864 79.7563L15.3772 81.4027Z" fill="url(#paint41_linear_12_552)"/>
<path d="M17.9041 86.3893L18.3237 87.0524L20.554 85.5918L19.2731 88.5537L19.6924 89.2182L22.9474 87.0863L22.528 86.4232L20.2928 87.8864L21.5782 84.9206L21.1588 84.2574L17.9041 86.3893Z" fill="url(#paint42_linear_12_552)"/>
<path d="M23.9287 91.6362C23.0732 92.4309 23.0463 93.6311 23.8037 94.4774C24.4983 95.2517 25.5048 95.287 26.1907 94.8639L26.6899 94.4014L25.2789 92.8256L24.8409 93.2324L25.7367 94.2319C25.2528 94.5208 24.7416 94.4692 24.3384 94.019C23.8532 93.4779 23.8848 92.7767 24.466 92.237C25.0356 91.7095 25.7246 91.7339 26.1911 92.2546C26.4675 92.5625 26.5571 92.9219 26.4349 93.2799L27.0361 93.9498C27.441 93.2311 27.3019 92.4133 26.7195 91.7637C26.3185 91.3162 25.7973 91.0843 25.2681 91.0843C24.8019 91.0843 24.3294 91.2647 23.9287 91.6362Z" fill="url(#paint43_linear_12_552)"/>
<path d="M32.48 102.118L33.1716 102.557L33.778 102.06L35.0826 102.889L34.9093 103.662L35.6036 104.105L36.4765 100.014L35.7116 99.5276L32.48 102.118ZM34.2843 101.638L35.6156 100.543L35.2332 102.241L34.2843 101.638Z" fill="url(#paint44_linear_12_552)"/>
<path d="M40.2386 104.324C39.7975 105.413 40.2719 106.509 41.3007 106.939C42.0949 107.271 42.9131 107.115 43.4582 106.464L42.6333 106.12C42.3201 106.403 41.9443 106.447 41.5592 106.285C40.9342 106.024 40.6783 105.369 40.9755 104.634C41.2754 103.893 41.9083 103.615 42.5333 103.877C42.9171 104.038 43.1557 104.338 43.1837 104.758L44.0085 105.104C44.0685 104.258 43.5981 103.554 42.8039 103.222C42.5413 103.112 42.2748 103.059 42.0163 103.059C41.258 103.059 40.5664 103.512 40.2386 104.324Z" fill="url(#paint45_linear_12_552)"/>
<path d="M47.7372 107.076C47.4866 108.226 48.137 109.223 49.2244 109.468C50.0626 109.657 50.8435 109.36 51.2699 108.623L50.3997 108.428C50.1386 108.762 49.7747 108.87 49.3696 108.778C48.71 108.63 48.3475 108.028 48.5154 107.252C48.686 106.47 49.263 106.086 49.924 106.235C50.3291 106.327 50.6143 106.581 50.7116 106.99L51.5831 107.187C51.5005 106.342 50.9181 105.732 50.0799 105.543C49.9227 105.507 49.7667 105.491 49.6148 105.491C48.718 105.491 47.9517 106.091 47.7372 107.076Z" fill="url(#paint46_linear_12_552)"/>
<path d="M55.6543 110.443L57.8944 110.587L57.9331 109.946L56.4685 109.852L56.5325 108.81L57.8318 108.893L57.8704 108.269L56.5711 108.187L56.6311 107.202L58.0957 107.294L58.1356 106.653L55.8968 106.51L55.6543 110.443Z" fill="url(#paint47_linear_12_552)"/>
<path d="M63.5249 106.468C62.7306 106.535 62.2016 107.008 62.2589 107.716C62.3682 109.137 64.3138 108.461 64.3817 109.309C64.4044 109.59 64.2045 109.804 63.8407 109.834C63.4822 109.864 63.261 109.673 63.213 109.361L62.3855 109.43C62.4561 110.171 63.1091 110.546 63.9087 110.478C64.7869 110.407 65.228 109.81 65.1773 109.191C65.0667 107.81 63.1264 108.413 63.0625 107.626C63.0371 107.306 63.2517 107.136 63.5555 107.121C63.8873 107.099 64.1072 107.285 64.1445 107.541L64.9947 107.471C64.8961 106.821 64.4004 106.46 63.7034 106.46C63.6461 106.46 63.5862 106.463 63.5249 106.468Z" fill="url(#paint48_linear_12_552)"/>
<path d="M70.2172 105.387C69.4416 105.576 68.9885 106.125 69.1511 106.817C69.4709 108.206 71.2939 107.236 71.4872 108.063C71.5525 108.338 71.3872 108.581 71.0314 108.667C70.6809 108.752 70.4344 108.597 70.3398 108.295L69.5322 108.492C69.7121 109.213 70.4131 109.483 71.1953 109.293C72.0522 109.086 72.3987 108.428 72.2574 107.824C71.9416 106.475 70.1119 107.372 69.932 106.604C69.86 106.291 70.0466 106.09 70.3451 106.029C70.6689 105.956 70.9155 106.105 70.9901 106.353L71.8203 106.151C71.6537 105.613 71.2273 105.329 70.6716 105.329C70.529 105.329 70.3758 105.348 70.2172 105.387Z" fill="url(#paint49_linear_12_552)"/>
<path d="M79.7454 101.967L80.0412 102.529L80.9501 102.032L82.4812 104.94L83.1649 104.567L81.6324 101.659L82.5412 101.164L82.2454 100.603L79.7454 101.967Z" fill="url(#paint50_linear_12_552)"/>
<path d="M86.9988 97.2845C86.1313 97.9585 85.9207 99.1723 86.623 100.108C87.3293 101.049 88.5353 101.16 89.4029 100.486C90.2731 99.8097 90.4756 98.6027 89.7693 97.6629C89.3642 97.1218 88.7952 96.8533 88.2182 96.8533C87.7957 96.8533 87.3693 96.997 86.9988 97.2845ZM87.2574 99.6157C86.7803 98.9797 86.8629 98.284 87.4226 97.8487C87.977 97.4188 88.6593 97.5191 89.1363 98.1552C89.6134 98.7912 89.5361 99.4964 88.9818 99.9277C88.7579 100.101 88.5127 100.188 88.2675 100.188C87.9037 100.188 87.5425 99.9968 87.2574 99.6157Z" fill="url(#paint51_linear_12_552)"/>
<path d="M95.6504 88.5225L97.8039 90.2014C98.0464 90.3899 98.1117 90.6259 97.9372 90.8592C97.7586 91.0965 97.5094 91.0938 97.2469 90.8958L96.7751 91.5223C97.3948 92.0051 98.0518 91.864 98.4929 91.2782C98.9273 90.7018 98.8847 90.0441 98.2797 89.5708L96.1248 87.8919L95.6504 88.5225Z" fill="url(#paint52_linear_12_552)"/>
<path d="M99.6308 82.1377L101.731 83.3054C102.197 83.5644 102.303 83.9563 102.064 84.4025C101.828 84.8419 101.447 84.9639 100.981 84.7049L98.8793 83.5386L98.5088 84.2316L100.604 85.3952C101.498 85.8929 102.271 85.5118 102.677 84.7551C103.082 83.9984 102.996 83.102 102.1 82.6042L100.005 81.4407L99.6308 82.1377Z" fill="url(#paint53_linear_12_552)"/>
<path d="M102.06 76.3239C101.794 77.0888 102 77.7737 102.658 78.0123C103.343 78.2632 103.725 77.8198 104.044 77.3777C104.339 76.9681 104.58 76.5599 104.959 76.6969C105.218 76.7918 105.329 77.0644 105.206 77.4143C105.085 77.7601 104.824 77.8862 104.524 77.8021L104.246 78.5982C104.939 78.8382 105.544 78.3866 105.811 77.6164C106.107 76.7715 105.754 76.1178 105.18 75.9103C104.511 75.6676 104.122 76.107 103.798 76.5464C103.499 76.9518 103.258 77.356 102.908 77.2285C102.61 77.1213 102.547 76.8528 102.658 76.564C102.776 76.248 103.032 76.1192 103.277 76.1897L103.563 75.3719C103.447 75.3394 103.335 75.3245 103.228 75.3245C102.705 75.3245 102.28 75.6947 102.06 76.3239Z" fill="url(#paint54_linear_12_552)"/>
<path d="M103.617 71.1516L104.231 71.2723L104.427 70.243L107.609 70.8709L107.757 70.0952L104.575 69.4673L104.771 68.438L104.156 68.3173L103.617 71.1516Z" fill="url(#paint55_linear_12_552)"/>
<path d="M104.595 64.2529L108.454 64.4943L108.502 63.7064L104.641 63.465L104.595 64.2529Z" fill="url(#paint56_linear_12_552)"/>
<path d="M107.136 56.2557C107.527 56.4116 107.733 56.7358 107.766 57.1562C107.818 57.8424 107.357 58.3713 106.579 58.4323C105.794 58.4933 105.265 58.0431 105.213 57.3569C105.181 56.9351 105.338 56.5839 105.694 56.3696L105.625 55.4637C104.856 55.7905 104.451 56.535 104.516 57.4057C104.603 58.5367 105.485 59.3328 106.64 59.2419C107.794 59.1511 108.542 58.2275 108.455 57.0965C108.39 56.2259 107.882 55.5532 107.067 55.3511L107.136 56.2557Z" fill="url(#paint57_linear_12_552)"/>
<path d="M106.366 48.4809L106.706 49.9347L105.709 50.1761L105.406 48.8878L104.809 49.0329L105.111 50.3212L104.167 50.5504L103.827 49.0966L103.213 49.2458L103.734 51.4672L107.5 50.5531L106.98 48.3331L106.366 48.4809Z" fill="url(#paint58_linear_12_552)"/>
<path d="M15.5127 35.7047C15.0649 36.5387 15.0325 37.4351 15.3478 38.1593L14.5518 37.7172L13.6687 39.3609L20.0622 42.9167L20.9453 41.273L17.4138 39.308C16.3866 38.737 16.1418 37.8542 16.6213 36.9618C17.0879 36.0926 17.9508 35.8254 18.9779 36.3963L22.5094 38.36L23.3922 36.7164L19.6418 34.6306C19.0349 34.2929 18.4539 34.1343 17.919 34.1343C16.898 34.1356 16.0466 34.7093 15.5127 35.7047Z" fill="url(#paint59_linear_12_552)"/>
<path d="M23.9421 24.3865C23.1707 25.1909 22.9403 26.1785 23.1083 26.9808L20.5948 24.4847L19.3086 25.8257L26.2745 32.7444L27.5604 31.403L26.8171 30.6646C27.581 30.7876 28.5275 30.5678 29.327 29.7346C30.6316 28.3741 30.569 26.2356 28.9401 24.618C28.0975 23.7812 27.1383 23.3843 26.228 23.3843C25.3785 23.3843 24.5719 23.7298 23.9421 24.3865ZM24.9532 28.8135C23.9649 27.8318 24.071 26.6093 24.7601 25.8908C25.4582 25.1627 26.6379 25.0062 27.6263 25.9879C28.615 26.9697 28.5271 28.2109 27.8288 28.9386C27.483 29.2994 27.0091 29.5136 26.4976 29.5136C25.99 29.5136 25.4456 29.3025 24.9532 28.8135Z" fill="url(#paint60_linear_12_552)"/>
<path d="M35.8262 15.5218L37.8371 19.0555C38.4234 20.0867 38.1929 20.9648 37.328 21.4747C36.4858 21.9715 35.6116 21.7441 35.0239 20.713L33.013 17.179L31.4192 18.1184L33.562 21.8839C34.5642 23.645 36.1767 23.9943 37.6465 23.1286C38.4314 22.6658 38.9285 21.9088 39.0165 21.1295L39.4776 21.9406L41.0834 20.9944L37.4306 14.5757L35.8262 15.5218Z" fill="url(#paint61_linear_12_552)"/>
<path d="M47.6987 10.7877C46.7938 11.0246 46.1275 11.614 45.8237 12.3437L45.5971 11.4491L43.8127 11.9164L45.6318 19.0992L47.4148 18.6317L46.41 14.6642C46.1182 13.5104 46.5846 12.7245 47.5534 12.4708C48.4969 12.2235 49.2778 12.6823 49.5697 13.8361L50.5745 17.8034L52.3575 17.3358L51.2914 13.1223C50.8783 11.4911 49.8269 10.6728 48.5515 10.6728C48.277 10.6729 47.9905 10.7112 47.6987 10.7877Z" fill="url(#paint62_linear_12_552)"/>
<path d="M62.5426 10.4909C62.0562 9.78478 61.1447 9.31082 60.1852 9.29115C58.3169 9.25264 56.815 10.7078 56.7684 13.0234C56.7231 15.3386 58.165 16.9079 60.02 16.9462C61.1634 16.9699 61.9896 16.4511 62.4373 15.7776L62.416 16.8749L64.283 16.9134L64.4789 7.00957L62.6119 6.97119L62.5426 10.4909ZM60.525 15.3096C59.5389 15.2895 58.622 14.4673 58.65 13.0621C58.6767 11.6565 59.6255 10.9264 60.6116 10.9469C61.6244 10.9675 62.5293 11.7629 62.5026 13.168C62.4747 14.5543 61.5631 15.3101 60.5663 15.3101C60.553 15.3101 60.5397 15.3095 60.525 15.3096Z" fill="url(#paint63_linear_12_552)"/>
<path d="M69.2163 17.8571L71.006 18.2993L73.3048 8.67518L71.5151 8.23267L69.2163 17.8571Z" fill="url(#paint64_linear_12_552)"/>
<path d="M86.3526 14.7107C86.0368 15.2355 86.1927 15.8981 86.7537 16.2481C87.3027 16.5907 87.9651 16.4387 88.2822 15.9138C88.5981 15.3887 88.4301 14.7191 87.8811 14.3764C87.6772 14.2497 87.4627 14.1898 87.2561 14.1898C86.8923 14.1899 86.5538 14.3758 86.3526 14.7107ZM81.6951 22.8272L83.2649 23.8066L87.0735 17.484L85.5037 16.5047L81.6951 22.8272Z" fill="url(#paint65_linear_12_552)"/>
<path d="M87.4106 26.718L88.7393 28.0163L91.5271 25.0614C92.3387 24.2021 93.2409 24.193 93.9618 24.8977C94.6641 25.5838 94.6921 26.5019 93.8805 27.3611L91.0927 30.316L92.42 31.614L95.3824 28.4759C96.7763 26.9985 96.6684 25.3342 95.445 24.138C94.7707 23.4797 93.9285 23.2131 93.1582 23.3328L93.7872 22.6668L92.4586 21.3686L87.4106 26.718Z" fill="url(#paint66_linear_12_552)"/>
<path d="M98.2889 33.1877C96.3299 34.3933 95.8462 36.475 96.9349 38.3085C97.8744 39.8884 99.3856 40.4132 100.918 39.9386L99.8907 38.2095C99.2124 38.3614 98.674 38.1295 98.2796 37.465C97.7478 36.5713 98.0464 35.5745 99.2617 34.8259C100.477 34.0773 101.495 34.2644 102.027 35.1568C102.421 35.8213 102.336 36.4533 101.916 36.9618L102.945 38.6923C104.135 37.4894 104.312 35.9244 103.373 34.3445C102.68 33.1782 101.604 32.54 100.408 32.54C99.7241 32.54 99.0005 32.7489 98.2889 33.1877Z" fill="url(#paint67_linear_12_552)"/>
<path d="M36.438 36.3231V77.4198L59.8255 93.9336L83.2116 77.4198V36.3231H36.438ZM38.373 76.3904V38.2516H81.278V76.3904L59.8255 91.5386L38.373 76.3904Z" fill="url(#paint68_linear_12_552)"/>
<path d="M47.8132 47.4462C45.164 47.4462 43.0064 49.6418 43.0064 52.3378C43.0064 54.7965 44.7988 56.8307 47.1229 57.1738L41.1914 69.9812H53.4808L47.5707 57.2172C47.652 57.2213 47.7319 57.2294 47.8132 57.2294C50.4638 57.2294 52.62 55.0352 52.62 52.3378H50.6477C50.6477 53.9285 49.3764 55.2223 47.8132 55.2223C46.2514 55.2223 44.9801 53.9285 44.9801 52.3378C44.9801 50.7484 46.2514 49.4546 47.8132 49.4546H58.8393V84.351H60.8116V49.4546H71.8364C73.3995 49.4546 74.6708 50.7484 74.6708 52.3378C74.6708 53.9285 73.3995 55.2223 71.8364 55.2223C70.2745 55.2223 69.0032 53.9285 69.0032 52.3378H67.0296C67.0296 55.0352 69.1858 57.2294 71.8364 57.2294C71.919 57.2294 71.9989 57.2213 72.0802 57.2172L66.1701 69.9812H78.4595L72.528 57.1738C74.8507 56.8307 76.6431 54.7965 76.6431 52.3378C76.6431 49.6418 74.4869 47.4462 71.8364 47.4462H47.8132ZM72.3148 61.4226L75.3478 67.9741H69.2804L72.3148 61.4226ZM47.3361 61.4226L50.3692 67.9741H44.3031L47.3361 61.4226Z" fill="url(#paint69_linear_12_552)"/>
<path d="M54.155 55.179V77.1648L56.1286 78.1683V55.179H54.155Z" fill="url(#paint70_linear_12_552)"/>
<path d="M63.5222 55.179V78.1683L65.4958 77.1648V55.179H63.5222Z" fill="url(#paint71_linear_12_552)"/>
<path d="M52.4973 45.4377H67.1535V43.4293H52.4973V45.4377Z" fill="url(#paint72_linear_12_552)"/>
<path d="M0.866211 60.0001C0.866211 93.0846 27.315 120 59.8256 120C92.3362 120 118.785 93.0846 118.785 60.0001C118.785 26.9162 92.3362 0 59.8256 0C27.315 0 0.866211 26.9162 0.866211 60.0001ZM2.83943 60.0001C2.83943 28.0231 28.4031 2.00792 59.8256 2.00792C91.2475 2.00792 116.811 28.0231 116.811 60.0001C116.811 91.9767 91.2475 117.992 59.8256 117.992C28.4031 117.992 2.83943 91.9767 2.83943 60.0001Z" fill="url(#paint73_linear_12_552)"/>
<defs>
<linearGradient id="paint0_linear_12_552" x1="59.323" y1="-17.1004" x2="-12.2555" y2="88.9892" gradientUnits="userSpaceOnUse">
<stop stop-color="#DF9B60"/>
<stop offset="1" stop-color="#B26F41"/>
</linearGradient>
<linearGradient id="paint1_linear_12_552" x1="62.3426" y1="-15.063" x2="-9.23601" y2="91.0276" gradientUnits="userSpaceOnUse">
<stop stop-color="#DF9B60"/>
<stop offset="1" stop-color="#B26F41"/>
</linearGradient>
<linearGradient id="paint2_linear_12_552" x1="65.6822" y1="-12.8102" x2="-5.89713" y2="93.2801" gradientUnits="userSpaceOnUse">
<stop stop-color="#DF9B60"/>
<stop offset="1" stop-color="#B26F41"/>
</linearGradient>
<linearGradient id="paint3_linear_12_552" x1="70.5852" y1="-9.50264" x2="-0.994238" y2="96.5879" gradientUnits="userSpaceOnUse">
<stop stop-color="#DF9B60"/>
<stop offset="1" stop-color="#B26F41"/>
</linearGradient>
<linearGradient id="paint4_linear_12_552" x1="74.4962" y1="-6.86362" x2="2.91679" y2="99.2266" gradientUnits="userSpaceOnUse">
<stop stop-color="#DF9B60"/>
<stop offset="1" stop-color="#B26F41"/>
</linearGradient>
<linearGradient id="paint5_linear_12_552" x1="79.2963" y1="-3.62491" x2="7.71715" y2="102.465" gradientUnits="userSpaceOnUse">
<stop stop-color="#DF9B60"/>
<stop offset="1" stop-color="#B26F41"/>
</linearGradient>
<linearGradient id="paint6_linear_12_552" x1="85.521" y1="0.575777" x2="13.9426" y2="106.665" gradientUnits="userSpaceOnUse">
<stop stop-color="#DF9B60"/>
<stop offset="1" stop-color="#B26F41"/>
</linearGradient>
<linearGradient id="paint7_linear_12_552" x1="96.1658" y1="7.75679" x2="24.5862" y2="113.847" gradientUnits="userSpaceOnUse">
<stop stop-color="#DF9B60"/>
<stop offset="1" stop-color="#B26F41"/>
</linearGradient>
<linearGradient id="paint8_linear_12_552" x1="102.602" y1="12.1004" x2="31.0233" y2="118.191" gradientUnits="userSpaceOnUse">
<stop stop-color="#DF9B60"/>
<stop offset="1" stop-color="#B26F41"/>
</linearGradient>
<linearGradient id="paint9_linear_12_552" x1="108.99" y1="16.4095" x2="37.4104" y2="122.5" gradientUnits="userSpaceOnUse">
<stop stop-color="#DF9B60"/>
<stop offset="1" stop-color="#B26F41"/>
</linearGradient>
<linearGradient id="paint10_linear_12_552" x1="114.501" y1="20.1276" x2="42.9222" y2="126.218" gradientUnits="userSpaceOnUse">
<stop stop-color="#DF9B60"/>
<stop offset="1" stop-color="#B26F41"/>
</linearGradient>
<linearGradient id="paint11_linear_12_552" x1="119.198" y1="23.2967" x2="47.6185" y2="129.388" gradientUnits="userSpaceOnUse">
<stop stop-color="#DF9B60"/>
<stop offset="1" stop-color="#B26F41"/>
</linearGradient>
<linearGradient id="paint12_linear_12_552" x1="123.541" y1="26.2263" x2="51.9609" y2="132.317" gradientUnits="userSpaceOnUse">
<stop stop-color="#DF9B60"/>
<stop offset="1" stop-color="#B26F41"/>
</linearGradient>
<linearGradient id="paint13_linear_12_552" x1="129.171" y1="30.0261" x2="57.5932" y2="136.117" gradientUnits="userSpaceOnUse">
<stop stop-color="#DF9B60"/>
<stop offset="1" stop-color="#B26F41"/>
</linearGradient>
<linearGradient id="paint14_linear_12_552" x1="131.875" y1="31.8497" x2="60.2956" y2="137.941" gradientUnits="userSpaceOnUse">
<stop stop-color="#DF9B60"/>
<stop offset="1" stop-color="#B26F41"/>
</linearGradient>
<linearGradient id="paint15_linear_12_552" x1="133.971" y1="33.265" x2="62.3921" y2="139.355" gradientUnits="userSpaceOnUse">
<stop stop-color="#DF9B60"/>
<stop offset="1" stop-color="#B26F41"/>
</linearGradient>
<linearGradient id="paint16_linear_12_552" x1="133.861" y1="33.189" x2="62.2812" y2="139.281" gradientUnits="userSpaceOnUse">
<stop stop-color="#DF9B60"/>
<stop offset="1" stop-color="#B26F41"/>
</linearGradient>
<linearGradient id="paint17_linear_12_552" x1="132.888" y1="32.533" x2="61.3082" y2="138.623" gradientUnits="userSpaceOnUse">
<stop stop-color="#DF9B60"/>
<stop offset="1" stop-color="#B26F41"/>
</linearGradient>
<linearGradient id="paint18_linear_12_552" x1="130.901" y1="31.1926" x2="59.3218" y2="137.283" gradientUnits="userSpaceOnUse">
<stop stop-color="#DF9B60"/>
<stop offset="1" stop-color="#B26F41"/>
</linearGradient>
<linearGradient id="paint19_linear_12_552" x1="128.822" y1="29.7904" x2="57.2432" y2="135.881" gradientUnits="userSpaceOnUse">
<stop stop-color="#DF9B60"/>
<stop offset="1" stop-color="#B26F41"/>
</linearGradient>
<linearGradient id="paint20_linear_12_552" x1="125.733" y1="27.7059" x2="54.1534" y2="133.797" gradientUnits="userSpaceOnUse">
<stop stop-color="#DF9B60"/>
<stop offset="1" stop-color="#B26F41"/>
</linearGradient>
<linearGradient id="paint21_linear_12_552" x1="121.623" y1="24.9327" x2="50.0437" y2="131.023" gradientUnits="userSpaceOnUse">
<stop stop-color="#DF9B60"/>
<stop offset="1" stop-color="#B26F41"/>
</linearGradient>
<linearGradient id="paint22_linear_12_552" x1="14.1207" y1="4.94203" x2="22.3921" y2="64.8843" gradientUnits="userSpaceOnUse">
<stop stop-color="#F7D190"/>
<stop offset="0.994413" stop-color="#9F8256"/>
<stop offset="1" stop-color="#9F8256"/>
</linearGradient>
<linearGradient id="paint23_linear_12_552" x1="21.756" y1="3.88846" x2="30.0274" y2="63.8306" gradientUnits="userSpaceOnUse">
<stop stop-color="#F7D190"/>
<stop offset="0.994413" stop-color="#9F8256"/>
<stop offset="1" stop-color="#9F8256"/>
</linearGradient>
<linearGradient id="paint24_linear_12_552" x1="33.9405" y1="2.20715" x2="42.2116" y2="62.1503" gradientUnits="userSpaceOnUse">
<stop stop-color="#F7D190"/>
<stop offset="0.994413" stop-color="#9F8256"/>
<stop offset="1" stop-color="#9F8256"/>
</linearGradient>
<linearGradient id="paint25_linear_12_552" x1="46.2048" y1="0.514849" x2="54.4772" y2="60.4578" gradientUnits="userSpaceOnUse">
<stop stop-color="#F7D190"/>
<stop offset="0.994413" stop-color="#9F8256"/>
<stop offset="1" stop-color="#9F8256"/>
</linearGradient>
<linearGradient id="paint26_linear_12_552" x1="59.0911" y1="-1.26333" x2="67.3622" y2="58.6799" gradientUnits="userSpaceOnUse">
<stop stop-color="#F7D190"/>
<stop offset="0.994413" stop-color="#9F8256"/>
<stop offset="1" stop-color="#9F8256"/>
</linearGradient>
<linearGradient id="paint27_linear_12_552" x1="69.139" y1="-2.64987" x2="77.4114" y2="57.2926" gradientUnits="userSpaceOnUse">
<stop stop-color="#F7D190"/>
<stop offset="0.994413" stop-color="#9F8256"/>
<stop offset="1" stop-color="#9F8256"/>
</linearGradient>
<linearGradient id="paint28_linear_12_552" x1="81.9403" y1="-4.41643" x2="90.2127" y2="55.5268" gradientUnits="userSpaceOnUse">
<stop stop-color="#F7D190"/>
<stop offset="0.994413" stop-color="#9F8256"/>
<stop offset="1" stop-color="#9F8256"/>
</linearGradient>
<linearGradient id="paint29_linear_12_552" x1="87.6932" y1="-5.20997" x2="95.9642" y2="54.7322" gradientUnits="userSpaceOnUse">
<stop stop-color="#F7D190"/>
<stop offset="0.994413" stop-color="#9F8256"/>
<stop offset="1" stop-color="#9F8256"/>
</linearGradient>
<linearGradient id="paint30_linear_12_552" x1="94.5069" y1="-6.15016" x2="102.778" y2="53.7924" gradientUnits="userSpaceOnUse">
<stop stop-color="#F7D190"/>
<stop offset="0.994413" stop-color="#9F8256"/>
<stop offset="1" stop-color="#9F8256"/>
</linearGradient>
<linearGradient id="paint31_linear_12_552" x1="95.8902" y1="1.51492" x2="19.0173" y2="115.451" gradientUnits="userSpaceOnUse">
<stop stop-color="#DF9B60"/>
<stop offset="1" stop-color="#B26F41"/>
</linearGradient>
<linearGradient id="paint32_linear_12_552" x1="95.3878" y1="7.23197" x2="23.8084" y2="113.323" gradientUnits="userSpaceOnUse">
<stop stop-color="#DF9B60"/>
<stop offset="1" stop-color="#B26F41"/>
</linearGradient>
<linearGradient id="paint33_linear_12_552" x1="92.9422" y1="8.65419" x2="24.3169" y2="110.365" gradientUnits="userSpaceOnUse">
<stop stop-color="#DF9B60"/>
<stop offset="1" stop-color="#B26F41"/>
</linearGradient>
<linearGradient id="paint34_linear_12_552" x1="100.612" y1="10.7566" x2="29.0321" y2="116.847" gradientUnits="userSpaceOnUse">
<stop stop-color="#DF9B60"/>
<stop offset="1" stop-color="#B26F41"/>
</linearGradient>
<linearGradient id="paint35_linear_12_552" x1="87.6718" y1="1.69149" x2="16.0926" y2="107.781" gradientUnits="userSpaceOnUse">
<stop stop-color="#DF9B60"/>
<stop offset="1" stop-color="#B26F41"/>
</linearGradient>
<linearGradient id="paint36_linear_12_552" x1="94.5657" y1="6.67699" x2="22.9859" y2="112.768" gradientUnits="userSpaceOnUse">
<stop stop-color="#DF9B60"/>
<stop offset="1" stop-color="#B26F41"/>
</linearGradient>
<linearGradient id="paint37_linear_12_552" x1="59.323" y1="-17.1004" x2="-12.2555" y2="88.9892" gradientUnits="userSpaceOnUse">
<stop stop-color="#DF9B60"/>
<stop offset="1" stop-color="#B26F41"/>
</linearGradient>
<linearGradient id="paint38_linear_12_552" x1="62.3426" y1="-15.063" x2="-9.23601" y2="91.0276" gradientUnits="userSpaceOnUse">
<stop stop-color="#DF9B60"/>
<stop offset="1" stop-color="#B26F41"/>
</linearGradient>
<linearGradient id="paint39_linear_12_552" x1="65.6822" y1="-12.8102" x2="-5.89713" y2="93.2801" gradientUnits="userSpaceOnUse">
<stop stop-color="#DF9B60"/>
<stop offset="1" stop-color="#B26F41"/>
</linearGradient>
<linearGradient id="paint40_linear_12_552" x1="70.5852" y1="-9.50264" x2="-0.994238" y2="96.5879" gradientUnits="userSpaceOnUse">
<stop stop-color="#DF9B60"/>
<stop offset="1" stop-color="#B26F41"/>
</linearGradient>
<linearGradient id="paint41_linear_12_552" x1="74.4962" y1="-6.86362" x2="2.91679" y2="99.2266" gradientUnits="userSpaceOnUse">
<stop stop-color="#DF9B60"/>
<stop offset="1" stop-color="#B26F41"/>
</linearGradient>
<linearGradient id="paint42_linear_12_552" x1="79.2963" y1="-3.62491" x2="7.71715" y2="102.465" gradientUnits="userSpaceOnUse">
<stop stop-color="#DF9B60"/>
<stop offset="1" stop-color="#B26F41"/>
</linearGradient>
<linearGradient id="paint43_linear_12_552" x1="85.521" y1="0.575777" x2="13.9426" y2="106.665" gradientUnits="userSpaceOnUse">
<stop stop-color="#DF9B60"/>
<stop offset="1" stop-color="#B26F41"/>
</linearGradient>
<linearGradient id="paint44_linear_12_552" x1="96.1658" y1="7.75679" x2="24.5862" y2="113.847" gradientUnits="userSpaceOnUse">
<stop stop-color="#DF9B60"/>
<stop offset="1" stop-color="#B26F41"/>
</linearGradient>
<linearGradient id="paint45_linear_12_552" x1="102.602" y1="12.1004" x2="31.0233" y2="118.191" gradientUnits="userSpaceOnUse">
<stop stop-color="#DF9B60"/>
<stop offset="1" stop-color="#B26F41"/>
</linearGradient>
<linearGradient id="paint46_linear_12_552" x1="108.99" y1="16.4095" x2="37.4104" y2="122.5" gradientUnits="userSpaceOnUse">
<stop stop-color="#DF9B60"/>
<stop offset="1" stop-color="#B26F41"/>
</linearGradient>
<linearGradient id="paint47_linear_12_552" x1="114.501" y1="20.1276" x2="42.9222" y2="126.218" gradientUnits="userSpaceOnUse">
<stop stop-color="#DF9B60"/>
<stop offset="1" stop-color="#B26F41"/>
</linearGradient>
<linearGradient id="paint48_linear_12_552" x1="119.198" y1="23.2967" x2="47.6185" y2="129.388" gradientUnits="userSpaceOnUse">
<stop stop-color="#DF9B60"/>
<stop offset="1" stop-color="#B26F41"/>
</linearGradient>
<linearGradient id="paint49_linear_12_552" x1="123.541" y1="26.2263" x2="51.9609" y2="132.317" gradientUnits="userSpaceOnUse">
<stop stop-color="#DF9B60"/>
<stop offset="1" stop-color="#B26F41"/>
</linearGradient>
<linearGradient id="paint50_linear_12_552" x1="129.171" y1="30.0261" x2="57.5932" y2="136.117" gradientUnits="userSpaceOnUse">
<stop stop-color="#DF9B60"/>
<stop offset="1" stop-color="#B26F41"/>
</linearGradient>
<linearGradient id="paint51_linear_12_552" x1="131.875" y1="31.8497" x2="60.2956" y2="137.941" gradientUnits="userSpaceOnUse">
<stop stop-color="#DF9B60"/>
<stop offset="1" stop-color="#B26F41"/>
</linearGradient>
<linearGradient id="paint52_linear_12_552" x1="133.971" y1="33.265" x2="62.3921" y2="139.355" gradientUnits="userSpaceOnUse">
<stop stop-color="#DF9B60"/>
<stop offset="1" stop-color="#B26F41"/>
</linearGradient>
<linearGradient id="paint53_linear_12_552" x1="133.861" y1="33.189" x2="62.2812" y2="139.281" gradientUnits="userSpaceOnUse">
<stop stop-color="#DF9B60"/>
<stop offset="1" stop-color="#B26F41"/>
</linearGradient>
<linearGradient id="paint54_linear_12_552" x1="132.888" y1="32.533" x2="61.3082" y2="138.623" gradientUnits="userSpaceOnUse">
<stop stop-color="#DF9B60"/>
<stop offset="1" stop-color="#B26F41"/>
</linearGradient>
<linearGradient id="paint55_linear_12_552" x1="130.901" y1="31.1926" x2="59.3218" y2="137.283" gradientUnits="userSpaceOnUse">
<stop stop-color="#DF9B60"/>
<stop offset="1" stop-color="#B26F41"/>
</linearGradient>
<linearGradient id="paint56_linear_12_552" x1="128.822" y1="29.7904" x2="57.2432" y2="135.881" gradientUnits="userSpaceOnUse">
<stop stop-color="#DF9B60"/>
<stop offset="1" stop-color="#B26F41"/>
</linearGradient>
<linearGradient id="paint57_linear_12_552" x1="125.733" y1="27.7059" x2="54.1534" y2="133.797" gradientUnits="userSpaceOnUse">
<stop stop-color="#DF9B60"/>
<stop offset="1" stop-color="#B26F41"/>
</linearGradient>
<linearGradient id="paint58_linear_12_552" x1="121.623" y1="24.9327" x2="50.0437" y2="131.023" gradientUnits="userSpaceOnUse">
<stop stop-color="#DF9B60"/>
<stop offset="1" stop-color="#B26F41"/>
</linearGradient>
<linearGradient id="paint59_linear_12_552" x1="14.1207" y1="4.94203" x2="22.3921" y2="64.8843" gradientUnits="userSpaceOnUse">
<stop stop-color="#F7D190"/>
<stop offset="0.994413" stop-color="#9F8256"/>
<stop offset="1" stop-color="#9F8256"/>
</linearGradient>
<linearGradient id="paint60_linear_12_552" x1="21.756" y1="3.88846" x2="30.0274" y2="63.8306" gradientUnits="userSpaceOnUse">
<stop stop-color="#F7D190"/>
<stop offset="0.994413" stop-color="#9F8256"/>
<stop offset="1" stop-color="#9F8256"/>
</linearGradient>
<linearGradient id="paint61_linear_12_552" x1="33.9405" y1="2.20715" x2="42.2116" y2="62.1503" gradientUnits="userSpaceOnUse">
<stop stop-color="#F7D190"/>
<stop offset="0.994413" stop-color="#9F8256"/>
<stop offset="1" stop-color="#9F8256"/>
</linearGradient>
<linearGradient id="paint62_linear_12_552" x1="46.2048" y1="0.514849" x2="54.4772" y2="60.4578" gradientUnits="userSpaceOnUse">
<stop stop-color="#F7D190"/>
<stop offset="0.994413" stop-color="#9F8256"/>
<stop offset="1" stop-color="#9F8256"/>
</linearGradient>
<linearGradient id="paint63_linear_12_552" x1="59.0911" y1="-1.26333" x2="67.3622" y2="58.6799" gradientUnits="userSpaceOnUse">
<stop stop-color="#F7D190"/>
<stop offset="0.994413" stop-color="#9F8256"/>
<stop offset="1" stop-color="#9F8256"/>
</linearGradient>
<linearGradient id="paint64_linear_12_552" x1="69.139" y1="-2.64987" x2="77.4114" y2="57.2926" gradientUnits="userSpaceOnUse">
<stop stop-color="#F7D190"/>
<stop offset="0.994413" stop-color="#9F8256"/>
<stop offset="1" stop-color="#9F8256"/>
</linearGradient>
<linearGradient id="paint65_linear_12_552" x1="81.9403" y1="-4.41643" x2="90.2127" y2="55.5268" gradientUnits="userSpaceOnUse">
<stop stop-color="#F7D190"/>
<stop offset="0.994413" stop-color="#9F8256"/>
<stop offset="1" stop-color="#9F8256"/>
</linearGradient>
<linearGradient id="paint66_linear_12_552" x1="87.6932" y1="-5.20997" x2="95.9642" y2="54.7322" gradientUnits="userSpaceOnUse">
<stop stop-color="#F7D190"/>
<stop offset="0.994413" stop-color="#9F8256"/>
<stop offset="1" stop-color="#9F8256"/>
</linearGradient>
<linearGradient id="paint67_linear_12_552" x1="94.5069" y1="-6.15016" x2="102.778" y2="53.7924" gradientUnits="userSpaceOnUse">
<stop stop-color="#F7D190"/>
<stop offset="0.994413" stop-color="#9F8256"/>
<stop offset="1" stop-color="#9F8256"/>
</linearGradient>
<linearGradient id="paint68_linear_12_552" x1="95.8902" y1="1.51492" x2="19.0173" y2="115.451" gradientUnits="userSpaceOnUse">
<stop stop-color="#DF9B60"/>
<stop offset="1" stop-color="#B26F41"/>
</linearGradient>
<linearGradient id="paint69_linear_12_552" x1="95.3878" y1="7.23197" x2="23.8084" y2="113.323" gradientUnits="userSpaceOnUse">
<stop stop-color="#DF9B60"/>
<stop offset="1" stop-color="#B26F41"/>
</linearGradient>
<linearGradient id="paint70_linear_12_552" x1="92.9422" y1="8.65419" x2="24.3169" y2="110.365" gradientUnits="userSpaceOnUse">
<stop stop-color="#DF9B60"/>
<stop offset="1" stop-color="#B26F41"/>
</linearGradient>
<linearGradient id="paint71_linear_12_552" x1="100.612" y1="10.7566" x2="29.0321" y2="116.847" gradientUnits="userSpaceOnUse">
<stop stop-color="#DF9B60"/>
<stop offset="1" stop-color="#B26F41"/>
</linearGradient>
<linearGradient id="paint72_linear_12_552" x1="87.6718" y1="1.69149" x2="16.0926" y2="107.781" gradientUnits="userSpaceOnUse">
<stop stop-color="#DF9B60"/>
<stop offset="1" stop-color="#B26F41"/>
</linearGradient>
<linearGradient id="paint73_linear_12_552" x1="94.5657" y1="6.67699" x2="22.9859" y2="112.768" gradientUnits="userSpaceOnUse">
<stop stop-color="#DF9B60"/>
<stop offset="1" stop-color="#B26F41"/>
</linearGradient>
</defs>
</svg>
